<svg width="17" height="17" viewBox="0 0 17 17" fill="none" xmlns="http://www.w3.org/2000/svg">
<path fill-rule="evenodd" clip-rule="evenodd" d="M2.31531 0.982449C2.48284 0.818 2.68408 0.690395 2.90568 0.608098C3.12728 0.525801 3.36417 0.490694 3.60065 0.505106C3.83713 0.519518 4.06778 0.583119 4.2773 0.69169C4.48683 0.800261 4.67044 0.951321 4.81595 1.13485L6.5331 3.30251C6.84875 3.69955 6.96009 4.2179 6.83547 4.70618L6.31143 6.76455C6.28418 6.87136 6.28557 6.98327 6.31547 7.0894C6.34536 7.19552 6.40274 7.29224 6.48203 7.37014L8.83557 9.67917C8.91493 9.75699 9.01347 9.81331 9.12159 9.84265C9.22972 9.87199 9.34374 9.87335 9.45256 9.84661L11.5487 9.33226C11.7945 9.27199 12.0511 9.26739 12.2991 9.31881C12.547 9.37022 12.7798 9.47631 12.9798 9.62904L15.1883 11.3144C15.982 11.92 16.0556 13.072 15.3446 13.7689L14.3537 14.7414C13.6458 15.4362 12.5865 15.742 11.5987 15.4011C9.07195 14.5282 6.77781 13.1081 4.88644 11.2463C2.98914 9.38996 1.54198 7.13822 0.652305 4.65805C0.304994 3.68852 0.616553 2.6488 1.32445 1.95298L2.31531 0.981447V0.982449Z" fill="#5A75FF"/>
</svg>
