<svg width="54" height="54" viewBox="0 0 54 54" fill="none" xmlns="http://www.w3.org/2000/svg">
<path d="M27 54C12.0876 54 0 41.9124 0 27C0 12.0876 12.0876 0 27 0C41.9124 0 54 12.0876 54 27C54 41.9124 41.9124 54 27 54ZM38.2742 12.4335L19.7336 22.9787L10.8979 17.955L9.98663 19.7657L19.7336 25.3766L39.8689 13.8814L38.2742 12.4335ZM34.2208 10.125L19.7336 18.4072L13.311 14.742L11.9914 16.3249L19.7336 20.7157L36.3606 11.2118L34.2225 10.125H34.2208ZM41.2813 15.3748L19.7336 27.6851L9.25763 21.7114L8.75644 23.7026L19.7336 29.9481L42.4642 16.9594L41.2813 15.3748ZM44.5601 21.2136L43.5578 18.6789L19.7336 32.2566L8.4375 25.8744V27.0962C8.4375 29.5684 8.93194 32.0153 9.8955 34.2934C10.8091 36.4998 12.1565 38.5002 13.8577 40.176C15.5585 41.8263 17.5509 43.1464 19.7336 44.0691C22.0421 45.0647 24.4569 45.5625 26.9781 45.5625C29.4688 45.5625 31.8819 45.0647 34.2208 44.0691C36.4293 43.1694 38.4408 41.8469 40.1423 40.176C41.8242 38.4842 43.1689 36.4879 44.1045 34.2934L44.5601 33.0716C45.2284 31.1411 45.5625 29.1482 45.5625 27.0979C45.5625 25.0442 45.2284 23.085 44.5601 21.2136Z" fill="#515151"/>
</svg>
