<svg width="20" height="19" viewBox="0 0 20 19" fill="none" xmlns="http://www.w3.org/2000/svg">
<g clip-path="url(#clip0)">
<path d="M0.889412 16.4706H11.4706C11.9571 16.4706 12.3529 16.0747 12.3529 15.5882V4.41177C12.3529 4.39824 12.3471 4.38647 12.3453 4.37353C12.3437 4.3612 12.3411 4.34901 12.3376 4.33706C12.3261 4.28692 12.3013 4.2408 12.2659 4.20353L8.14882 0.0864706C8.10218 0.0423994 8.04256 0.01455 7.97882 0.00705882C7.96647 0.00588235 7.95471 0 7.94118 0H0.885882C0.397647 0 0 0.395882 0 0.882353V15.5882C0 16.0747 0.398824 16.4706 0.889412 16.4706ZM8.23529 1.00412L11.3488 4.11765H8.52941C8.45141 4.11765 8.3766 4.08666 8.32144 4.0315C8.26628 3.97634 8.23529 3.90153 8.23529 3.82353V1.00412ZM0.588235 0.882353C0.588235 0.72 0.721765 0.588235 0.885882 0.588235H7.64706V3.82353C7.64706 4.31 8.04294 4.70588 8.52941 4.70588H11.7647V15.5882C11.7647 15.6662 11.7337 15.7411 11.6786 15.7962C11.6234 15.8514 11.5486 15.8824 11.4706 15.8824H0.889412C0.850323 15.8828 0.811526 15.8756 0.775235 15.8611C0.738945 15.8465 0.705871 15.825 0.677904 15.7977C0.649936 15.7704 0.627623 15.7378 0.612237 15.7019C0.596852 15.6659 0.588696 15.6273 0.588235 15.5882V0.882353Z" fill="#E63946"/>
<path d="M2.64568 7.05894H9.7045C9.78251 7.05894 9.85732 7.02795 9.91248 6.97279C9.96763 6.91764 9.99862 6.84283 9.99862 6.76482C9.99862 6.68682 9.96763 6.61201 9.91248 6.55685C9.85732 6.50169 9.78251 6.4707 9.7045 6.4707H2.64568C2.56768 6.4707 2.49287 6.50169 2.43771 6.55685C2.38255 6.61201 2.35156 6.68682 2.35156 6.76482C2.35156 6.84283 2.38255 6.91764 2.43771 6.97279C2.49287 7.02795 2.56768 7.05894 2.64568 7.05894Z" fill="#E63946"/>
<path d="M2.64568 9.41148H9.7045C9.78251 9.41148 9.85732 9.38049 9.91248 9.32533C9.96763 9.27017 9.99862 9.19536 9.99862 9.11736C9.99862 9.03935 9.96763 8.96454 9.91248 8.90939C9.85732 8.85423 9.78251 8.82324 9.7045 8.82324H2.64568C2.56768 8.82324 2.49287 8.85423 2.43771 8.90939C2.38255 8.96454 2.35156 9.03935 2.35156 9.11736C2.35156 9.19536 2.38255 9.27017 2.43771 9.32533C2.49287 9.38049 2.56768 9.41148 2.64568 9.41148Z" fill="#E63946"/>
<path d="M2.64568 4.70542H5.58686C5.66486 4.70542 5.73967 4.67444 5.79483 4.61928C5.84999 4.56412 5.88097 4.48931 5.88097 4.41131C5.88097 4.3333 5.84999 4.25849 5.79483 4.20333C5.73967 4.14817 5.66486 4.11719 5.58686 4.11719H2.64568C2.56768 4.11719 2.49287 4.14817 2.43771 4.20333C2.38255 4.25849 2.35156 4.3333 2.35156 4.41131C2.35156 4.48931 2.38255 4.56412 2.43771 4.61928C2.49287 4.67444 2.56768 4.70542 2.64568 4.70542Z" fill="#E63946"/>
<path d="M2.64568 11.765H9.7045C9.78251 11.765 9.85732 11.734 9.91248 11.6788C9.96763 11.6237 9.99862 11.5489 9.99862 11.4709C9.99862 11.3929 9.96763 11.3181 9.91248 11.2629C9.85732 11.2077 9.78251 11.1768 9.7045 11.1768H2.64568C2.56768 11.1768 2.49287 11.2077 2.43771 11.2629C2.38255 11.3181 2.35156 11.3929 2.35156 11.4709C2.35156 11.5489 2.38255 11.6237 2.43771 11.6788C2.49287 11.734 2.56768 11.765 2.64568 11.765Z" fill="#E63946"/>
<path d="M2.64568 14.1175H9.7045C9.78251 14.1175 9.85732 14.0865 9.91248 14.0314C9.96763 13.9762 9.99862 13.9014 9.99862 13.8234C9.99862 13.7454 9.96763 13.6706 9.91248 13.6154C9.85732 13.5603 9.78251 13.5293 9.7045 13.5293H2.64568C2.56768 13.5293 2.49287 13.5603 2.43771 13.6154C2.38255 13.6706 2.35156 13.7454 2.35156 13.8234C2.35156 13.9014 2.38255 13.9762 2.43771 14.0314C2.49287 14.0865 2.56768 14.1175 2.64568 14.1175Z" fill="#E63946"/>
<path d="M12.6484 2.94077H15.2955V6.17607C15.2955 6.66254 15.6914 7.05842 16.1778 7.05842H19.4131V17.9408C19.4131 18.0188 19.3822 18.0936 19.327 18.1487C19.2718 18.2039 19.197 18.2349 19.119 18.2349H8.53785C8.49876 18.2354 8.45996 18.2281 8.42367 18.2136C8.38738 18.1991 8.35431 18.1775 8.32634 18.1502C8.29837 18.1229 8.27606 18.0904 8.26068 18.0544C8.24529 18.0185 8.23713 17.9799 8.23667 17.9408V17.3525C8.23667 17.2745 8.20569 17.1997 8.15053 17.1446C8.09537 17.0894 8.02056 17.0584 7.94256 17.0584C7.86455 17.0584 7.78974 17.0894 7.73458 17.1446C7.67942 17.1997 7.64844 17.2745 7.64844 17.3525V17.9408C7.64844 18.4272 8.04726 18.8231 8.53785 18.8231H19.119C19.6055 18.8231 20.0014 18.4272 20.0014 17.9408V6.7643C20.0014 6.75077 19.9955 6.73901 19.9937 6.72607C19.9921 6.71374 19.9895 6.70155 19.9861 6.6896C19.9746 6.63946 19.9498 6.59334 19.9143 6.55607L15.7973 2.43901C15.7509 2.39457 15.6911 2.36684 15.6273 2.36019C15.6149 2.35842 15.6031 2.35254 15.5896 2.35254H12.6484C12.5704 2.35254 12.4956 2.38353 12.4405 2.43868C12.3853 2.49384 12.3543 2.56865 12.3543 2.64666C12.3543 2.72466 12.3853 2.79947 12.4405 2.85463C12.4956 2.90979 12.5704 2.94077 12.6484 2.94077ZM16.1778 6.47019C16.0998 6.47019 16.025 6.4392 15.9699 6.38404C15.9147 6.32888 15.8837 6.25407 15.8837 6.17607V3.35666L18.9973 6.47019H16.1778Z" fill="#E63946"/>
<path d="M13.8254 9.41148H17.3548C17.4328 9.41148 17.5076 9.38049 17.5628 9.32533C17.6179 9.27017 17.6489 9.19536 17.6489 9.11736C17.6489 9.03935 17.6179 8.96454 17.5628 8.90939C17.5076 8.85423 17.4328 8.82324 17.3548 8.82324H13.8254C13.7474 8.82324 13.6726 8.85423 13.6174 8.90939C13.5622 8.96454 13.5312 9.03935 13.5312 9.11736C13.5312 9.19536 13.5622 9.27017 13.6174 9.32533C13.6726 9.38049 13.7474 9.41148 13.8254 9.41148Z" fill="#E63946"/>
<path d="M13.8254 11.765H17.3548C17.4328 11.765 17.5076 11.734 17.5628 11.6788C17.6179 11.6237 17.6489 11.5489 17.6489 11.4709C17.6489 11.3929 17.6179 11.3181 17.5628 11.2629C17.5076 11.2077 17.4328 11.1768 17.3548 11.1768H13.8254C13.7474 11.1768 13.6726 11.2077 13.6174 11.2629C13.5622 11.3181 13.5312 11.3929 13.5312 11.4709C13.5312 11.5489 13.5622 11.6237 13.6174 11.6788C13.6726 11.734 13.7474 11.765 13.8254 11.765Z" fill="#E63946"/>
<path d="M13.8254 14.1175H17.3548C17.4328 14.1175 17.5076 14.0865 17.5628 14.0314C17.6179 13.9762 17.6489 13.9014 17.6489 13.8234C17.6489 13.7454 17.6179 13.6706 17.5628 13.6154C17.5076 13.5603 17.4328 13.5293 17.3548 13.5293H13.8254C13.7474 13.5293 13.6726 13.5603 13.6174 13.6154C13.5622 13.6706 13.5312 13.7454 13.5312 13.8234C13.5312 13.9014 13.5622 13.9762 13.6174 14.0314C13.6726 14.0865 13.7474 14.1175 13.8254 14.1175Z" fill="#E63946"/>
<path d="M13.8254 16.471H17.3548C17.4328 16.471 17.5076 16.4401 17.5628 16.3849C17.6179 16.3297 17.6489 16.2549 17.6489 16.1769C17.6489 16.0989 17.6179 16.0241 17.5628 15.969C17.5076 15.9138 17.4328 15.8828 17.3548 15.8828H13.8254C13.7474 15.8828 13.6726 15.9138 13.6174 15.969C13.5622 16.0241 13.5312 16.0989 13.5312 16.1769C13.5312 16.2549 13.5622 16.3297 13.6174 16.3849C13.6726 16.4401 13.7474 16.471 13.8254 16.471Z" fill="#E63946"/>
</g>
<defs>
<clipPath id="clip0">
<rect width="20" height="18.8235" fill="white"/>
</clipPath>
</defs>
</svg>
