<svg width="20" height="20" viewBox="0 0 20 20" fill="none" xmlns="http://www.w3.org/2000/svg">
<g clip-path="url(#clip0)">
<path d="M14.5475 0.357143C14.5475 0.252976 14.5901 0.167411 14.6754 0.100446C14.7606 0.0334821 14.8695 0 15.0021 0H19.093C19.3392 0 19.5522 0.0706845 19.7322 0.212054C19.9121 0.353423 20.0021 0.520833 20.0021 0.714286V3.92857C20.0021 4.03274 19.9594 4.1183 19.8742 4.18527C19.789 4.25223 19.6801 4.28571 19.5475 4.28571H18.6384C18.5058 4.28571 18.3969 4.25223 18.3117 4.18527C18.2265 4.1183 18.1839 4.03274 18.1839 3.92857V2.43304L14.5759 5.27902C15.7691 6.45461 16.3657 7.79018 16.3657 9.28571C16.3657 10.9301 15.6673 12.3605 14.2705 13.577C12.8737 14.7935 11.1479 15.4911 9.09297 15.6696V17.1429H10.4566C10.5892 17.1429 10.6981 17.1763 10.7833 17.2433C10.8685 17.3103 10.9112 17.3958 10.9112 17.5V18.2143C10.9112 18.3185 10.8685 18.404 10.7833 18.471C10.6981 18.5379 10.5892 18.5714 10.4566 18.5714H9.09297V19.6429C9.09297 19.747 9.05036 19.8326 8.96513 19.8996C8.8799 19.9665 8.771 20 8.63842 20H7.72933C7.59676 20 7.48786 19.9665 7.40263 19.8996C7.3174 19.8326 7.27479 19.747 7.27479 19.6429V18.5714H5.91115C5.77858 18.5714 5.66967 18.5379 5.58445 18.471C5.49922 18.404 5.45661 18.3185 5.45661 18.2143V17.5C5.45661 17.3958 5.49922 17.3103 5.58445 17.2433C5.66967 17.1763 5.77858 17.1429 5.91115 17.1429H7.27479V15.6696C5.8638 15.5506 4.58303 15.1674 3.43246 14.5201C2.28189 13.8728 1.39884 13.0413 0.783311 12.0257C0.167781 11.01 -0.0831658 9.9256 0.0304706 8.77232C0.181986 7.25446 0.939561 5.93936 2.3032 4.82701C3.66683 3.71466 5.30983 3.07292 7.23217 2.90179C8.3496 2.79762 9.42914 2.8683 10.4708 3.11384C11.5125 3.35938 12.45 3.74256 13.2833 4.26339L16.9055 1.42857H15.0021C14.8695 1.42857 14.7606 1.39509 14.6754 1.32812C14.5901 1.26116 14.5475 1.1756 14.5475 1.07143V0.357143ZM8.18388 14.2857C9.93577 14.2857 11.4344 13.7965 12.6796 12.8181C13.9249 11.8397 14.5475 10.6622 14.5475 9.28571C14.5475 7.90923 13.9249 6.73177 12.6796 5.75335C11.4344 4.77493 9.93577 4.28571 8.18388 4.28571C6.43198 4.28571 4.93341 4.77493 3.68814 5.75335C2.44288 6.73177 1.82024 7.90923 1.82024 9.28571C1.82024 10.6622 2.44288 11.8397 3.68814 12.8181C4.93341 13.7965 6.43198 14.2857 8.18388 14.2857Z" fill="#E63946"/>
</g>
<defs>
<clipPath id="clip0">
<rect width="20" height="20" fill="white"/>
</clipPath>
</defs>
</svg>
