<svg width="20" height="20" viewBox="0 0 20 20" fill="none" xmlns="http://www.w3.org/2000/svg">
<path d="M18.4883 9.86278L10.4434 1.82371C10.3854 1.76568 10.3166 1.71963 10.2409 1.68821C10.1651 1.6568 10.084 1.64062 10.002 1.64062C9.91995 1.64062 9.83876 1.6568 9.76302 1.68821C9.68727 1.71963 9.61847 1.76568 9.56055 1.82371L1.51562 9.86278C1.28125 10.0972 1.14844 10.4155 1.14844 10.7475C1.14844 11.437 1.70898 11.9975 2.39844 11.9975H3.24609V17.7339C3.24609 18.0796 3.52539 18.3589 3.87109 18.3589H8.75195V13.9839H10.9395V18.3589H16.1328C16.4785 18.3589 16.7578 18.0796 16.7578 17.7339V11.9975H17.6055C17.9375 11.9975 18.2559 11.8667 18.4902 11.6304C18.9766 11.1421 18.9766 10.3511 18.4883 9.86278Z" fill="white"/>
</svg>
