<svg width="91" height="81" viewBox="0 0 91 81" fill="none" xmlns="http://www.w3.org/2000/svg">
<g clip-path="url(#clip0)">
<path d="M88.4893 34.6646L74.8494 22.5402V8.53453C74.8494 6.0021 72.5407 3.94977 69.6875 3.94977C66.8409 3.94977 64.5322 6.0021 64.5322 8.53453V13.3696L54.3762 4.3417C49.3549 -0.119199 40.6247 -0.111286 35.6149 4.34977L1.50997 34.6646C-0.503323 36.4578 -0.503323 39.3592 1.50997 41.1496C3.52417 42.9423 6.79463 42.9423 8.8081 41.1496L42.9098 10.8339C44.0207 9.85161 45.9788 9.85161 47.0839 10.831L81.1913 41.1496C82.2027 42.046 83.5213 42.4919 84.8395 42.4919C86.1604 42.4919 87.4812 42.0455 88.4895 41.1496C90.5035 39.3594 90.5035 36.4579 88.4893 34.6646Z" fill="#E63946"/>
<path d="M46.7908 19.5371C45.8 18.6569 44.1957 18.6569 43.2077 19.5371L13.2089 46.1948C12.7353 46.6157 12.4668 47.1902 12.4668 47.7898V67.233C12.4668 71.7954 16.6285 75.4946 21.7611 75.4946H36.6136V55.0488H53.3817V75.4946H68.2343C73.3667 75.4946 77.5285 71.7954 77.5285 67.2331V47.7898C77.5285 47.1902 77.2623 46.6157 76.7864 46.1948L46.7908 19.5371Z" fill="#E63946"/>
</g>
<defs>
<clipPath id="clip0">
<rect width="90" height="80" fill="white" transform="translate(0.5 0.666992)"/>
</clipPath>
</defs>
</svg>
