<svg width="20" height="20" viewBox="0 0 20 20" fill="none" xmlns="http://www.w3.org/2000/svg">
<path d="M6.25 8.75C6.94036 8.75 7.5 8.19036 7.5 7.5C7.5 6.80964 6.94036 6.25 6.25 6.25C5.55964 6.25 5 6.80964 5 7.5C5 8.19036 5.55964 8.75 6.25 8.75Z" fill="#E63946"/>
<path d="M10 6.875C10.6904 6.875 11.25 6.31536 11.25 5.625C11.25 4.93464 10.6904 4.375 10 4.375C9.30964 4.375 8.75 4.93464 8.75 5.625C8.75 6.31536 9.30964 6.875 10 6.875Z" fill="#E63946"/>
<path d="M13.75 8.75C14.4404 8.75 15 8.19036 15 7.5C15 6.80964 14.4404 6.25 13.75 6.25C13.0596 6.25 12.5 6.80964 12.5 7.5C12.5 8.19036 13.0596 8.75 13.75 8.75Z" fill="#E63946"/>
<path d="M14.375 12.5C15.0654 12.5 15.625 11.9404 15.625 11.25C15.625 10.5596 15.0654 10 14.375 10C13.6846 10 13.125 10.5596 13.125 11.25C13.125 11.9404 13.6846 12.5 14.375 12.5Z" fill="#E63946"/>
<path d="M11.875 15.625C12.5654 15.625 13.125 15.0654 13.125 14.375C13.125 13.6846 12.5654 13.125 11.875 13.125C11.1846 13.125 10.625 13.6846 10.625 14.375C10.625 15.0654 11.1846 15.625 11.875 15.625Z" fill="#E63946"/>
<path d="M10.3375 1.24968C9.16035 1.20424 7.98615 1.39696 6.88528 1.8163C5.78442 2.23564 4.77957 2.87296 3.93097 3.69004C3.08237 4.50712 2.4075 5.48715 1.94682 6.57136C1.48613 7.65558 1.24913 8.82165 1.25 9.99967C1.24997 10.463 1.35681 10.9201 1.56222 11.3354C1.76762 11.7507 2.06606 12.113 2.43431 12.3942C2.80256 12.6754 3.23071 12.8678 3.68546 12.9566C4.14021 13.0453 4.6093 13.028 5.05625 12.9059L5.75625 12.7122C6.03472 12.6362 6.32697 12.6255 6.61025 12.6809C6.89352 12.7364 7.16017 12.8565 7.38941 13.0319C7.61865 13.2073 7.8043 13.4333 7.93189 13.6922C8.05948 13.9511 8.12557 14.236 8.125 14.5247V16.8747C8.125 17.372 8.32255 17.8489 8.67418 18.2005C9.02581 18.5521 9.50272 18.7497 10 18.7497C11.178 18.7505 12.3441 18.5135 13.4283 18.0529C14.5125 17.5922 15.4926 16.9173 16.3096 16.0687C17.1267 15.2201 17.764 14.2153 18.1834 13.1144C18.6027 12.0135 18.7954 10.8393 18.75 9.66217C18.6593 7.4601 17.7439 5.37263 16.1855 3.81421C14.627 2.25578 12.5396 1.34036 10.3375 1.24968ZM15.4063 15.1934C14.7084 15.9241 13.8693 16.5053 12.94 16.9017C12.0106 17.2982 11.0104 17.5016 10 17.4997C9.83424 17.4997 9.67527 17.4338 9.55806 17.3166C9.44085 17.1994 9.375 17.0404 9.375 16.8747V14.5247C9.375 13.6959 9.04576 12.901 8.45971 12.315C7.87366 11.7289 7.0788 11.3997 6.25 11.3997C5.96916 11.4002 5.68963 11.438 5.41875 11.5122L4.71875 11.7059C4.4573 11.776 4.18323 11.7849 3.91778 11.732C3.65233 11.679 3.40264 11.5657 3.18807 11.4006C2.97351 11.2356 2.79983 11.0234 2.6805 10.7805C2.56118 10.5375 2.49941 10.2703 2.5 9.99967C2.49923 8.98955 2.70251 7.98967 3.09766 7.06004C3.4928 6.13041 4.07167 5.29017 4.79952 4.58975C5.52737 3.88934 6.38921 3.34316 7.33334 2.98401C8.27746 2.62485 9.2844 2.46011 10.2938 2.49968C12.1732 2.59757 13.9499 3.38822 15.2807 4.71902C16.6115 6.04982 17.4021 7.82643 17.5 9.70592C17.543 10.7159 17.3795 11.724 17.0195 12.6687C16.6595 13.6133 16.1106 14.4745 15.4063 15.1997V15.1934Z" fill="#E63946"/>
</svg>
