<svg width="84" height="84" viewBox="0 0 84 84" fill="none" xmlns="http://www.w3.org/2000/svg">
<g clip-path="url(#clip0)">
<path d="M61.9886 47.6441C56.3485 40.8343 49.2195 37.084 41.9143 37.084C34.6091 37.084 27.4799 40.8343 21.8401 47.6441C16.7705 53.765 13.7441 61.4792 13.7441 68.2795C13.7441 71.5829 14.754 74.099 16.7456 75.7584C18.7113 77.3964 21.3066 77.9504 24.2019 77.9503C27.2828 77.9503 30.7037 77.3228 34.0649 76.7062C37.002 76.1674 39.7762 75.6586 41.9145 75.6586C43.76 75.6586 46.3621 76.1415 49.1165 76.6529C55.5538 77.8481 62.8502 79.2024 67.065 75.698C69.0687 74.0321 70.0846 71.5361 70.0846 68.2795C70.0848 61.4792 67.0583 53.765 61.9886 47.6441ZM63.9247 71.9211C61.4814 73.9528 55.1224 72.7722 50.0128 71.8237C47.0295 71.2698 44.2117 70.7467 41.9141 70.7467C39.329 70.7467 36.3415 71.2949 33.1783 71.8751C28.2778 72.774 22.1789 73.8929 19.8893 71.985C19.5841 71.7307 18.6555 70.9569 18.6555 68.2793C18.6555 62.6723 21.3252 55.9657 25.6226 50.777C30.3126 45.1143 36.0984 41.9956 41.914 41.9956C47.7296 41.9956 53.5154 45.1143 58.2054 50.777C62.5029 55.9657 65.1725 62.6723 65.1725 68.2793C65.173 70.8834 64.2335 71.6646 63.9247 71.9211Z" fill="#E63946"/>
<path d="M62.5645 10.6661C60.5009 7.62359 57.5459 5.87891 54.4572 5.87891C51.3683 5.87891 48.4135 7.62392 46.3499 10.6661C44.4543 13.4611 43.4102 17.1316 43.4102 21.0015C43.4102 24.8713 44.4541 28.5418 46.3499 31.3368C48.4135 34.3792 51.3685 36.1242 54.4572 36.1242C57.5461 36.1242 60.5009 34.3792 62.5645 31.3368C64.4601 28.5418 65.5042 24.8713 65.5042 21.0015C65.5042 17.1316 64.4603 13.461 62.5645 10.6661ZM58.4996 28.5798C57.8328 29.5629 56.4208 31.2125 54.4572 31.2125C52.4936 31.2125 51.0818 29.5631 50.4148 28.5798C49.0846 26.6186 48.3218 23.8564 48.3218 21.0015C48.3218 18.1464 49.0848 15.3843 50.4148 13.4232C51.0816 12.44 52.4936 10.7904 54.4572 10.7904C56.4208 10.7904 57.8328 12.4398 58.4996 13.4232C59.8298 15.3843 60.5926 18.1465 60.5926 21.0015C60.5924 23.8564 59.8298 26.6186 58.4996 28.5798Z" fill="#E63946"/>
<path d="M37.4785 10.6663C35.4149 7.62375 32.4601 5.87891 29.3712 5.87891C26.2824 5.87891 23.3274 7.62392 21.2639 10.6663C19.3683 13.4613 18.3242 17.1317 18.3242 21.0016C18.3242 24.8715 19.3681 28.5419 21.2639 31.3369C23.3276 34.3795 26.2824 36.1245 29.3712 36.1245C32.4601 36.1245 35.4149 34.3795 37.4785 31.3369C39.3742 28.5419 40.4183 24.8716 40.4183 21.0016C40.4181 17.1317 39.3742 13.4611 37.4785 10.6663ZM33.4134 28.5801C32.7465 29.5633 31.3345 31.2128 29.3711 31.2128C27.4075 31.2128 25.9955 29.5633 25.3287 28.5801C23.9985 26.6189 23.2357 23.8567 23.2357 21.0018C23.2357 18.1467 23.9987 15.3846 25.3287 13.4235C25.9955 12.4403 27.4075 10.7907 29.3711 10.7907C31.3347 10.7907 32.7465 12.4401 33.4134 13.4235C34.7435 15.3846 35.5063 18.1469 35.5063 21.0018C35.5063 23.8567 34.7435 26.6189 33.4134 28.5801Z" fill="#E63946"/>
<path d="M83.34 34.4043C82.5081 31.5744 80.7249 29.5182 78.3193 28.6145C76.3834 27.8874 74.1981 28.0107 72.1659 28.9618C69.3653 30.2723 67.0763 32.9784 65.886 36.386C64.9133 39.1707 64.7919 42.1141 65.5446 44.6743C66.3765 47.5041 68.1597 49.5604 70.5655 50.464C71.398 50.7767 72.2764 50.9321 73.1691 50.9321C74.3523 50.9321 75.5606 50.6589 76.719 50.1167C79.5196 48.8063 81.8087 46.1002 82.999 42.6927V42.6925C83.9715 39.908 84.0928 36.9645 83.34 34.4043ZM78.3619 41.0728C77.6159 43.2079 76.2234 44.9258 74.6371 45.6681C74.0537 45.9409 73.1737 46.1968 72.2925 45.8659C70.166 45.0671 69.3388 41.394 70.5226 38.0058C71.2685 35.8706 72.661 34.1528 74.2475 33.4103C74.6343 33.2294 75.1513 33.056 75.7126 33.056C75.9981 33.056 76.2951 33.1008 76.592 33.2123C78.7185 34.0113 79.5456 37.6844 78.3619 41.0728Z" fill="#E63946"/>
<path d="M17.9423 36.3858C16.7518 32.9781 14.4628 30.2722 11.6624 28.9617C9.63002 28.0106 7.44458 27.8875 5.50883 28.6145C3.10301 29.5182 1.31985 31.5745 0.487951 34.4042C-0.264706 36.9644 -0.143383 39.9079 0.829323 42.6924V42.6926C2.01995 46.1002 4.30886 48.8062 7.10926 50.1167C8.2678 50.6588 9.47595 50.932 10.6592 50.932C11.5519 50.932 12.4304 50.7765 13.2628 50.4639C15.669 49.5601 17.4519 47.5039 18.2838 44.6742C19.0362 42.1141 18.9149 39.1706 17.9423 36.3858ZM11.5355 45.866C10.6545 46.1968 9.77426 45.9409 9.19106 45.6682C7.6047 44.9258 6.21204 43.208 5.46626 41.0728V41.073C4.28267 37.6847 5.10966 34.0117 7.23615 33.2128C8.11701 32.8819 8.99737 33.1378 9.58073 33.4105C11.1673 34.153 12.5598 35.8709 13.3055 38.0059C14.4891 41.3942 13.662 45.0671 11.5355 45.866Z" fill="#E63946"/>
</g>
<defs>
<clipPath id="clip0">
<rect width="83.8286" height="83.8286" fill="white"/>
</clipPath>
</defs>
</svg>
