<svg width="56" height="60" viewBox="0 0 56 60" fill="none" xmlns="http://www.w3.org/2000/svg">
<g clip-path="url(#clip0)">
<path d="M37.2816 25.9137C33.1871 24.8443 29.3903 25.465 26.5903 27.6615C23.7903 29.8581 22.1221 33.5246 21.8931 37.9857C21.6872 41.9957 22.7166 46.0382 24.6465 48.7996C25.5841 50.1411 26.6853 50.8592 27.9195 50.9342C29.1378 51.0082 30.2898 50.4529 31.3995 49.5822C32.5804 48.6559 33.7135 47.3725 34.8268 46.1114C35.7997 45.0095 36.7186 43.9687 37.5381 43.3257C38.2455 42.7708 39.3799 42.1845 40.5808 41.564C43.3873 40.1137 46.5683 38.4698 47.1892 35.7794C47.4844 34.5004 47.1654 33.1814 46.2412 31.859C44.3113 29.0975 40.9619 26.8749 37.2816 25.9137ZM44.9137 35.1899C44.5538 36.7496 41.7814 38.1823 39.5538 39.3335C38.2531 40.0056 37.0246 40.6404 36.144 41.3313C35.1531 42.1086 34.1636 43.2295 33.1159 44.4162C31.4927 46.2547 29.4726 48.5429 28.0536 48.4566C27.8644 48.4451 27.2889 48.4101 26.529 47.3228C24.9376 45.0459 24.0575 41.5198 24.232 38.1206C24.4225 34.4109 25.7551 31.4048 27.9841 29.6561C30.2132 27.9075 33.3159 27.4342 36.7206 28.3235C39.8404 29.1383 42.767 31.059 44.3584 33.3359C45.0976 34.3932 44.9592 34.9929 44.9137 35.1899Z" fill="#E63946"/>
<path d="M27.0089 10.7246C25.3544 10.1096 23.7267 10.2896 22.5428 11.2184C21.3589 12.1472 20.7216 13.7442 20.794 15.6001C20.8607 17.3051 21.5022 19.1095 22.6005 20.681C23.6988 22.2524 25.1406 23.429 26.6605 23.994C28.3149 24.6089 29.9428 24.429 31.1267 23.5003C32.3106 22.5715 32.9479 20.9745 32.8754 19.1185C32.8087 17.4135 32.1672 15.6091 31.0689 14.0376C29.9706 12.4662 28.5287 11.2895 27.0089 10.7246ZM30.5349 19.2212C30.5584 19.821 30.4853 20.9154 29.7327 21.5058C28.9801 22.0962 27.9708 21.8509 27.4361 21.6522C26.3697 21.2558 25.2933 20.3634 24.4831 19.2041C23.6728 18.0447 23.1813 16.6937 23.1345 15.4974C23.1111 14.8977 23.1841 13.8032 23.9367 13.2128C24.6893 12.6224 25.6986 12.8676 26.2333 13.0664C27.2997 13.4629 28.3761 14.3552 29.1863 15.5145C29.9965 16.6739 30.4881 18.0249 30.5349 19.2212Z" fill="#E63946"/>
<path d="M17.3917 18.2686C15.7373 17.6536 14.1095 17.8335 12.9256 18.7623C11.7417 19.6911 11.1043 21.2882 11.1769 23.1441C11.2435 24.8491 11.8851 26.6535 12.9834 28.225C14.0817 29.7965 15.5235 30.973 17.0434 31.538C18.6979 32.153 20.3256 31.9732 21.5096 31.0444C22.6935 30.1156 23.3308 28.5185 23.2583 26.6625C23.1916 24.9576 22.5501 23.1532 21.4518 21.5817C20.3534 20.0102 18.9115 18.8336 17.3917 18.2686ZM20.9177 26.7654C20.9411 27.3651 20.8681 28.4595 20.1155 29.0499C19.3629 29.6403 18.3536 29.395 17.8189 29.1963C16.7525 28.7999 15.6762 27.9076 14.8659 26.7482C14.0556 25.5889 13.5642 24.2378 13.5173 23.0415C13.4939 22.4418 13.5669 21.3474 14.3196 20.757C15.0722 20.1665 16.0814 20.4118 16.6161 20.6106C17.6825 21.007 18.7588 21.8994 19.5691 23.0587C20.3794 24.218 20.8709 25.5691 20.9177 26.7654Z" fill="#E63946"/>
<path d="M41.7096 14.1179C40.5876 13.2189 39.3205 12.92 38.142 13.2764C37.1937 13.5633 36.3911 14.2704 35.8821 15.2677C35.1806 16.6419 35.0712 18.4291 35.5821 20.1708C35.9996 21.594 36.7884 22.8257 37.8035 23.6391C38.9255 24.5381 40.1926 24.8369 41.3712 24.4805C41.779 24.3571 42.1598 24.1561 42.5019 23.8877C42.9555 23.5319 43.3411 23.0576 43.6312 22.4892C44.3327 21.1149 44.4421 19.3278 43.9312 17.5861L43.9312 17.5861C43.5136 16.1629 42.7248 14.9311 41.7096 14.1179ZM41.6941 18.3226C42.0142 19.414 41.968 20.5302 41.5706 21.3087C41.4245 21.5949 41.1598 21.9634 40.7281 22.094C39.6863 22.409 38.3269 21.1662 37.819 19.4344C37.4989 18.343 37.5451 17.2267 37.9425 16.4482C38.0393 16.2584 38.1883 16.0326 38.4034 15.8638C38.5129 15.7779 38.6394 15.7068 38.7849 15.6629C39.8267 15.3479 41.1862 16.5908 41.6941 18.3226Z" fill="#E63946"/>
<path d="M17.2037 34.5866C15.7803 33.5608 14.135 33.1502 12.6897 33.4601C11.6408 33.685 10.7682 34.2921 10.2326 35.1694C9.56695 36.2598 9.46707 37.6309 9.95131 39.0301C10.3894 40.2961 11.2713 41.4549 12.4344 42.2932L12.4345 42.2932C13.8579 43.319 15.5032 43.7296 16.9485 43.4197C17.5464 43.2915 18.087 43.0392 18.5406 42.6834C18.8827 42.415 19.1753 42.0877 19.4057 41.7105C20.0714 40.62 20.1712 39.2488 19.687 37.8496C19.2488 36.5838 18.3669 35.425 17.2037 34.5866ZM17.4386 40.3627C17.1949 40.762 16.7849 40.9227 16.4839 40.9873C15.6652 41.1629 14.6439 40.884 13.752 40.2412L13.7521 40.2413C12.3368 39.2213 11.6114 37.4811 12.1997 36.5173C12.4434 36.118 12.8534 35.9572 13.1545 35.8926C13.9733 35.7171 14.9945 35.9959 15.8863 36.6387C17.3016 37.6587 18.027 39.3989 17.4386 40.3627Z" fill="#E63946"/>
</g>
<defs>
<clipPath id="clip0">
<rect width="40.8376" height="41.5308" fill="white" transform="matrix(0.786788 -0.617223 0.572859 0.819654 0 25.2061)"/>
</clipPath>
</defs>
</svg>
