<svg width="20" height="20" viewBox="0 0 20 20" fill="none" xmlns="http://www.w3.org/2000/svg">
<path d="M15.7689 10.2074C17.3273 10.2074 18.5911 8.94861 18.5911 7.39521C18.5911 5.84221 17.3273 4.58301 15.7689 4.58301C14.2093 4.58301 12.9453 5.84241 12.9453 7.39521C12.9451 8.94861 14.2093 10.2074 15.7689 10.2074Z" fill="#E63946"/>
<path d="M9.40779 10.7284C10.8109 10.7284 11.9484 9.59516 11.9484 8.19722C11.9484 6.79927 10.8109 5.66602 9.40779 5.66602C8.00465 5.66602 6.86719 6.79927 6.86719 8.19722C6.86719 9.59516 8.00465 10.7284 9.40779 10.7284Z" fill="#E63946"/>
<path d="M3.64207 11.1968C4.90467 11.1968 5.92867 10.1776 5.92867 8.9196C5.92867 7.6612 4.90467 6.6416 3.64207 6.6416C2.37907 6.6416 1.35547 7.6612 1.35547 8.9196C1.35547 10.1778 2.37887 11.1968 3.64207 11.1968Z" fill="#E63946"/>
<path d="M3.64191 11.7168C2.19191 11.7168 1.12891 12.9894 1.12891 14.304V15.189C1.12891 15.3142 1.23131 15.417 1.35731 15.417H5.92591C6.05231 15.417 6.15471 15.3142 6.15471 15.189V14.304C6.15471 12.9894 5.09171 11.7168 3.64191 11.7168Z" fill="#E63946"/>
<path d="M9.40959 11.3057C7.79859 11.3057 6.61719 12.7199 6.61719 14.1809V15.1643C6.61719 15.3033 6.73099 15.4177 6.87099 15.4177H11.9474C12.0147 15.4177 12.0792 15.3911 12.1269 15.3436C12.1746 15.296 12.2014 15.2316 12.2016 15.1643V14.1809C12.2018 12.7201 11.0206 11.3057 9.40959 11.3057Z" fill="#E63946"/>
<path d="M15.7665 10.8486C13.9765 10.8486 12.6641 12.4198 12.6641 14.0434V15.1358C12.6641 15.2904 12.7905 15.4172 12.9461 15.4172H18.5861C18.7425 15.4172 18.8689 15.2902 18.8689 15.1358V14.0434C18.8689 12.42 17.5565 10.8486 15.7665 10.8486Z" fill="#E63946"/>
</svg>
