<svg width="20" height="20" viewBox="0 0 20 20" fill="none" xmlns="http://www.w3.org/2000/svg">
<path fill-rule="evenodd" clip-rule="evenodd" d="M2.83442 1.22503C3.03942 1.02 3.28568 0.860914 3.55685 0.758311C3.82801 0.655709 4.1179 0.61194 4.40727 0.629907C4.69665 0.647875 4.97889 0.727169 5.23529 0.862528C5.49168 0.997888 5.71636 1.18622 5.89442 1.41503L7.99567 4.11753C8.38192 4.61253 8.51817 5.25878 8.36567 5.86753L7.72442 8.43378C7.69108 8.56694 7.69278 8.70646 7.72936 8.83877C7.76594 8.97108 7.83616 9.09166 7.93318 9.18878L10.8132 12.0675C10.9103 12.1645 11.0309 12.2348 11.1632 12.2713C11.2955 12.3079 11.435 12.3096 11.5682 12.2763L14.1332 11.635C14.434 11.5599 14.748 11.5542 15.0514 11.6183C15.3548 11.6824 15.6397 11.8146 15.8844 12.005L18.5869 14.1063C19.5582 14.8613 19.6482 16.2975 18.7782 17.1663L17.5657 18.3788C16.6994 19.245 15.4032 19.6263 14.1944 19.2013C11.1024 18.113 8.29512 16.3425 5.98067 14.0213C3.65897 11.707 1.88811 8.89963 0.799424 5.80753C0.374424 4.59878 0.755674 3.30253 1.62192 2.43503L2.83442 1.22378V1.22503Z" fill="white"/>
</svg>
