<svg width="20" height="20" viewBox="0 0 20 20" fill="none" xmlns="http://www.w3.org/2000/svg">
<path d="M4.10917 15.8922C5.59453 17.3762 7.58743 18.2416 9.68583 18.3139C9.3 16.003 9.99 13.5464 11.7692 11.7672C13.5492 9.98805 16.005 9.29805 18.3158 9.68388C18.2392 7.65638 17.4383 5.65138 15.8942 4.10721C14.35 2.56305 12.3442 1.76221 10.3175 1.68555C10.7033 3.99638 10.0133 6.45305 8.23417 8.23221C6.45417 10.0114 3.99833 10.7014 1.6875 10.3155C1.75902 12.4141 2.62455 14.4073 4.10917 15.8922Z" fill="#E63946"/>
<path d="M12.9466 12.9457C12.2683 13.6245 11.7681 14.4602 11.4903 15.3786C11.2126 16.2971 11.1657 17.2699 11.3541 18.2107C13.0733 17.9346 14.6616 17.1232 15.8928 15.892C17.124 14.6607 17.9355 13.0724 18.2116 11.3532C17.2707 11.1651 16.2979 11.212 15.3795 11.4898C14.4611 11.7676 13.6255 12.2677 12.9466 12.9457ZM7.0549 7.05406C7.73311 6.37529 8.23331 5.53962 8.51111 4.62118C8.78891 3.70274 8.83572 2.72993 8.6474 1.78906C6.92804 2.065 5.33957 2.87636 4.10816 4.10761C2.87676 5.33886 2.06521 6.92724 1.78906 8.64656C2.73006 8.83473 3.70296 8.78785 4.6215 8.51006C5.54005 8.23227 6.37587 7.73216 7.0549 7.05406Z" fill="#E63946"/>
</svg>
