<svg width="20" height="20" viewBox="0 0 20 20" fill="none" xmlns="http://www.w3.org/2000/svg">
<g clip-path="url(#clip0)">
<path d="M10 18C12.1217 18 14.1566 17.1571 15.6569 15.6569C17.1571 14.1566 18 12.1217 18 10C18 7.87827 17.1571 5.84344 15.6569 4.34315C14.1566 2.84285 12.1217 2 10 2C7.87827 2 5.84344 2.84285 4.34315 4.34315C2.84285 5.84344 2 7.87827 2 10C2 12.1217 2.84285 14.1566 4.34315 15.6569C5.84344 17.1571 7.87827 18 10 18ZM10 20C4.477 20 0 15.523 0 10C0 4.477 4.477 0 10 0C15.523 0 20 4.477 20 10C20 15.523 15.523 20 10 20Z" fill="white"/>
<path d="M13.0374 9.50371C13.0474 8.26038 12.0216 7.12038 10.7507 6.96288L10.6674 6.95038C10.6037 6.93772 10.539 6.93048 10.4741 6.92871C10.2132 6.92871 10.1441 7.11704 10.1257 7.22954C10.1153 7.27627 10.1144 7.3246 10.123 7.37169C10.1316 7.41878 10.1495 7.46367 10.1757 7.50371C10.2624 7.62454 10.4141 7.64538 10.5357 7.66371C10.5716 7.66871 10.6057 7.67288 10.6332 7.68038C11.7757 7.94288 12.1607 8.35704 12.3482 9.52621C12.3532 9.55538 12.3549 9.59038 12.3566 9.62788C12.3649 9.76704 12.3824 10.0579 12.6857 10.0579C12.7107 10.0579 12.7374 10.0562 12.7657 10.0512C13.0482 10.007 13.0391 9.74121 13.0349 9.61371C13.0328 9.58291 13.0328 9.55201 13.0349 9.52121C13.0358 9.5157 13.0364 9.51013 13.0366 9.50454L13.0374 9.50371Z" fill="white"/>
<path d="M10.3573 6.55392C10.3907 6.55642 10.424 6.55892 10.4498 6.56309C12.3248 6.86142 13.1882 7.77809 13.4273 9.72975C13.4315 9.76309 13.4315 9.80309 13.4323 9.84642C13.4348 9.99892 13.4398 10.3156 13.7698 10.3223H13.7798C13.8251 10.3247 13.8704 10.3174 13.9127 10.3008C13.955 10.2843 13.9932 10.2589 14.0248 10.2264C14.1273 10.1156 14.1207 9.95142 14.1148 9.81809C14.1132 9.78642 14.1115 9.75559 14.1123 9.72892C14.1357 7.73309 12.4623 5.92309 10.5307 5.85642L10.5073 5.85725C10.4999 5.85835 10.4924 5.85891 10.4848 5.85892C10.4657 5.85892 10.4415 5.85725 10.4165 5.85559C10.3833 5.85255 10.3499 5.85088 10.3165 5.85059C10.009 5.85059 9.95067 6.07559 9.94317 6.21059C9.92651 6.52142 10.2173 6.54392 10.3573 6.55392ZM13.3365 12.2514C13.2964 12.22 13.2567 12.188 13.2173 12.1556C13.0123 11.9856 12.794 11.8289 12.584 11.6773C12.5401 11.6457 12.4962 11.614 12.4523 11.5823C12.1823 11.3873 11.9398 11.2914 11.7107 11.2914C11.4023 11.2914 11.1332 11.4681 10.9107 11.8156C10.8123 11.9689 10.6923 12.0439 10.5457 12.0439C10.4433 12.0403 10.3429 12.0144 10.2515 11.9681C9.38067 11.5598 8.75817 10.9348 8.40234 10.1098C8.23067 9.70975 8.28567 9.44975 8.58901 9.23725C8.76067 9.11725 9.08067 8.89309 9.05817 8.46392C9.03317 7.97642 7.99067 6.50975 7.55151 6.34309C7.36417 6.27239 7.15758 6.27179 6.96984 6.34142C6.46567 6.51642 6.10317 6.82475 5.92234 7.23059C5.74734 7.62392 5.75567 8.08475 5.94567 8.56475C6.49317 9.95309 7.26234 11.1631 8.23401 12.1614C9.18401 13.1389 10.3523 13.9389 11.7057 14.5406C11.8273 14.5948 11.9557 14.6239 12.049 14.6456L12.1282 14.6656C12.139 14.6687 12.1502 14.6704 12.1615 14.6706H12.1723C12.809 14.6706 13.5732 14.0706 13.8082 13.3856C14.014 12.7856 13.6382 12.4889 13.3365 12.2514ZM10.639 8.13975C10.5307 8.14225 10.3032 8.14809 10.2232 8.38642C10.1865 8.49809 10.1907 8.59475 10.2365 8.67392C10.304 8.79059 10.434 8.82642 10.5515 8.84559C10.9782 8.91642 11.1982 9.16059 11.2415 9.61225C11.2623 9.82392 11.3998 9.97059 11.5765 9.97059C11.5899 9.97087 11.6032 9.97031 11.6165 9.96892C11.829 9.94225 11.9315 9.78142 11.9223 9.48975C11.9257 9.18475 11.7715 8.83975 11.509 8.56475C11.2457 8.28809 10.9282 8.13225 10.639 8.13975Z" fill="white"/>
</g>
<defs>
<clipPath id="clip0">
<rect width="20" height="20" fill="white"/>
</clipPath>
</defs>
</svg>
