<svg width="20" height="20" viewBox="0 0 20 20" fill="none" xmlns="http://www.w3.org/2000/svg">
<g clip-path="url(#clip0)">
<path fill-rule="evenodd" clip-rule="evenodd" d="M2.83442 1.20223C3.03942 1.001 3.28568 0.844852 3.55685 0.744146C3.82801 0.643441 4.1179 0.600481 4.40727 0.618116C4.69665 0.635752 4.97889 0.713579 5.23529 0.846436C5.49168 0.979294 5.71636 1.16414 5.89442 1.38872L7.99567 4.04126C8.38192 4.52711 8.51817 5.16141 8.36567 5.75891L7.72442 8.27772C7.69108 8.40842 7.69278 8.54536 7.72936 8.67523C7.76594 8.80509 7.83616 8.92344 7.93318 9.01876L10.8132 11.8443C10.9103 11.9395 11.0309 12.0084 11.1632 12.0443C11.2955 12.0802 11.435 12.0819 11.5682 12.0492L14.1332 11.4198C14.434 11.346 14.748 11.3404 15.0514 11.4033C15.3548 11.4662 15.6397 11.5961 15.8844 11.7829L18.5869 13.8454C19.5582 14.5864 19.6482 15.9961 18.7782 16.8488L17.5657 18.0389C16.6994 18.8891 15.4032 19.2633 14.1944 18.8462C11.1024 17.778 8.29512 16.0403 5.98067 13.7619C3.65897 11.4904 1.88811 8.73496 0.799424 5.70002C0.374424 4.51361 0.755674 3.24133 1.62192 2.38987L2.83442 1.20101V1.20223Z" fill="#E63946"/>
</g>
<defs>
<clipPath id="clip0">
<rect width="20" height="19.6303" fill="white"/>
</clipPath>
</defs>
</svg>
