<svg width="20" height="19" viewBox="0 0 20 19" fill="none" xmlns="http://www.w3.org/2000/svg">
<path d="M14.2486 0.402819L0.437614 13.1048C0.156978 13.3644 -0.000374168 13.7157 6.68154e-07 14.0817C0.000375505 14.4478 0.158447 14.7988 0.439614 15.0579L3.62462 17.9886C3.90654 18.2469 4.28821 18.3921 4.68621 18.3925C5.0842 18.3928 5.46616 18.2483 5.74862 17.9904L19.5616 5.28847C19.8421 5.0287 19.9995 4.67749 19.9995 4.31143C19.9995 3.94537 19.8421 3.59416 19.5616 3.33439L16.3756 0.402819C16.0928 0.144789 15.7105 0 15.3121 0C14.9137 0 14.5315 0.144789 14.2486 0.402819ZM3.92862 14.0804L3.16962 14.7784L1.27362 13.034L2.03262 12.336L3.92862 14.0804ZM6.96462 14.0804L6.20562 14.7784L2.79062 11.6381L3.54962 10.9392L6.96462 14.0804ZM6.96462 11.2886L6.20562 11.9866L4.30762 10.2431L5.06762 9.54422L6.96462 11.2886ZM8.48262 9.89273L7.72362 10.5907L5.82762 8.84719L6.58662 8.14832L8.48262 9.89273ZM11.5176 9.89273L10.7586 10.5907L7.34462 7.45129L8.10362 6.75334L11.5176 9.89273ZM11.5176 7.10185L10.7586 7.7998L8.86262 6.05631L9.62162 5.35836L11.5176 7.10185ZM13.0356 5.70687L12.2766 6.40482L10.3796 4.66041L11.1386 3.96246L13.0356 5.70687ZM16.0716 5.70687L15.3116 6.40482L11.8976 3.26451L12.6566 2.56564L16.0716 5.70687ZM16.0706 2.91599L15.3116 3.61394L13.4156 1.86861L14.1746 1.17158L16.0706 2.91599Z" fill="#E63946"/>
</svg>
