<svg width="20" height="20" viewBox="0 0 20 20" fill="none" xmlns="http://www.w3.org/2000/svg">
<path d="M18.0656 6.64957L16.8864 7.82707L15.1197 6.0604L13.3514 7.82707L16.2972 10.7737L15.1189 11.9521L14.5297 11.3629L9.22641 16.6662H4.51224L2.74474 18.4337L1.56641 17.2554L3.33391 15.4879V10.7737L8.63724 5.4704L8.04807 4.88124L9.22641 3.7029L12.1731 6.64874L13.9397 4.88124L12.1731 3.11374L13.3514 1.93457L18.0656 6.64874V6.64957ZM13.3514 10.1846L9.81557 6.64874L8.63724 7.82707L10.4047 9.5954L9.22641 10.7737L7.45891 9.00624L6.28057 10.1846L8.04724 11.9521L6.86974 13.1304L5.10141 11.3629L5.00057 11.4637V14.9996H8.53641L13.3514 10.1846Z" fill="#E63946"/>
</svg>
