<svg width="20" height="20" viewBox="0 0 20 20" fill="none" xmlns="http://www.w3.org/2000/svg">
<path d="M3.33464 3.33366L16.668 16.667L3.33464 3.33366ZM10.0013 19.3337C8.77563 19.3337 7.56196 19.0922 6.42959 18.6232C5.29722 18.1542 4.26832 17.4667 3.40164 16.6C2.53496 15.7333 1.84747 14.7044 1.37843 13.572C0.909383 12.4397 0.667969 11.226 0.667969 10.0003C0.667969 8.77465 0.909383 7.56099 1.37843 6.42861C1.84747 5.29624 2.53496 4.26734 3.40164 3.40066C4.26832 2.53398 5.29722 1.84649 6.42959 1.37745C7.56196 0.908406 8.77563 0.666992 10.0013 0.666992C12.4767 0.666992 14.8506 1.65032 16.601 3.40066C18.3513 5.151 19.3346 7.52497 19.3346 10.0003C19.3346 12.4757 18.3513 14.8496 16.601 16.6C14.8506 18.3503 12.4767 19.3337 10.0013 19.3337Z" stroke="#E63946"/>
</svg>
