<svg width="20" height="20" viewBox="0 0 20 20" fill="none" xmlns="http://www.w3.org/2000/svg">
<path d="M14.7896 11.3671C13.4439 9.74242 11.7431 8.84766 10.0002 8.84766C8.2573 8.84766 6.55641 9.74242 5.21086 11.3671C4.00133 12.8275 3.2793 14.6679 3.2793 16.2904C3.2793 17.0785 3.52023 17.6788 3.99539 18.0747C4.46438 18.4655 5.08355 18.5977 5.77434 18.5976C6.50937 18.5976 7.32555 18.4479 8.12746 18.3008C8.8282 18.1723 9.49008 18.0509 10.0002 18.0509C10.4405 18.0509 11.0614 18.1661 11.7185 18.2881C13.2543 18.5732 14.9951 18.8964 16.0007 18.0603C16.4787 17.6628 16.7211 17.0673 16.7211 16.2904C16.7212 14.6679 15.9991 12.8275 14.7896 11.3671ZM15.2515 17.1592C14.6686 17.6439 13.1514 17.3622 11.9323 17.1359C11.2206 17.0038 10.5483 16.879 10.0002 16.879C9.3834 16.879 8.67063 17.0098 7.91594 17.1482C6.74676 17.3627 5.29168 17.6296 4.74543 17.1744C4.67262 17.1137 4.45105 16.9291 4.45105 16.2903C4.45105 14.9526 5.08801 13.3525 6.11328 12.1146C7.23223 10.7636 8.61262 10.0195 10.0001 10.0195C11.3876 10.0195 12.768 10.7636 13.887 12.1146C14.9123 13.3525 15.5492 14.9526 15.5492 16.2903C15.5493 16.9116 15.3252 17.098 15.2515 17.1592Z" fill="#5A75FF"/>
<path d="M14.9273 2.54449C14.435 1.81859 13.73 1.40234 12.993 1.40234C12.2561 1.40234 11.5511 1.81867 11.0588 2.54449C10.6065 3.21133 10.3574 4.08703 10.3574 5.01031C10.3574 5.93359 10.6065 6.8093 11.0588 7.47613C11.5511 8.20199 12.2561 8.61832 12.993 8.61832C13.73 8.61832 14.435 8.20199 14.9273 7.47613C15.3796 6.8093 15.6287 5.93359 15.6287 5.01031C15.6287 4.08703 15.3796 3.21129 14.9273 2.54449ZM13.9575 6.81836C13.7984 7.05293 13.4615 7.44649 12.993 7.44649C12.5246 7.44649 12.1877 7.05297 12.0286 6.81836C11.7113 6.35047 11.5293 5.69145 11.5293 5.01031C11.5293 4.32914 11.7113 3.67016 12.0286 3.20227C12.1877 2.9677 12.5246 2.57414 12.993 2.57414C13.4615 2.57414 13.7984 2.96766 13.9575 3.20227C14.2748 3.67016 14.4568 4.32918 14.4568 5.01031C14.4568 5.69145 14.2748 6.35047 13.9575 6.81836Z" fill="#5A75FF"/>
<path d="M8.94098 2.54453C8.44863 1.81863 7.74367 1.40234 7.00672 1.40234C6.26977 1.40234 5.56477 1.81867 5.07246 2.54453C4.6202 3.21137 4.37109 4.08707 4.37109 5.01035C4.37109 5.93363 4.62016 6.80934 5.07246 7.47617C5.5648 8.20207 6.26977 8.6184 7.00672 8.6184C7.74367 8.6184 8.44863 8.20207 8.94098 7.47617C9.39324 6.80934 9.64234 5.93367 9.64234 5.01035C9.6423 4.08707 9.39324 3.21133 8.94098 2.54453ZM7.97109 6.81844C7.81199 7.05301 7.47512 7.44656 7.00668 7.44656C6.5382 7.44656 6.20133 7.05301 6.04223 6.81844C5.72488 6.35055 5.54289 5.69152 5.54289 5.01039C5.54289 4.32922 5.72492 3.67023 6.04223 3.20234C6.20133 2.96777 6.5382 2.57422 7.00668 2.57422C7.47516 2.57422 7.81199 2.96773 7.97109 3.20234C8.28844 3.67023 8.47043 4.32926 8.47043 5.01039C8.47043 5.69152 8.28844 6.35055 7.97109 6.81844Z" fill="#5A75FF"/>
<path d="M19.8836 8.20784C19.6851 7.53269 19.2597 7.0421 18.6857 6.82651C18.2238 6.65304 17.7025 6.68245 17.2176 6.90937C16.5495 7.22202 16.0033 7.86765 15.7193 8.68065C15.4873 9.34503 15.4583 10.0473 15.6379 10.6581C15.8364 11.3332 16.2618 11.8238 16.8358 12.0394C17.0344 12.114 17.244 12.1511 17.457 12.1511C17.7393 12.1511 18.0276 12.0859 18.3039 11.9566C18.9721 11.6439 19.5182 10.9983 19.8022 10.1853V10.1853C20.0342 9.52093 20.0632 8.81866 19.8836 8.20784ZM18.6959 9.79882C18.5179 10.3082 18.1857 10.7181 17.8072 10.8952C17.668 10.9603 17.4581 11.0213 17.2478 10.9424C16.7405 10.7518 16.5431 9.87546 16.8256 9.0671C17.0035 8.55769 17.3358 8.14784 17.7143 7.97069C17.8065 7.92753 17.9299 7.88616 18.0638 7.88616C18.1319 7.88616 18.2028 7.89687 18.2736 7.92347C18.781 8.11409 18.9783 8.99042 18.6959 9.79882Z" fill="#5A75FF"/>
<path d="M4.28071 8.6806C3.99669 7.86759 3.45056 7.222 2.78243 6.90935C2.29755 6.68243 1.77614 6.65306 1.31431 6.8265C0.740323 7.04212 0.314893 7.53271 0.116416 8.20782C-0.063154 8.81864 -0.0342087 9.52091 0.197862 10.1852V10.1853C0.481924 10.9983 1.02802 11.6439 1.69614 11.9565C1.97255 12.0859 2.26079 12.1511 2.5431 12.1511C2.75607 12.1511 2.96567 12.114 3.16427 12.0394C3.73833 11.8238 4.16372 11.3332 4.3622 10.6581C4.54169 10.0473 4.51275 9.34501 4.28071 8.6806ZM2.75216 10.9424C2.54196 11.0213 2.33196 10.9603 2.19282 10.8952C1.81435 10.7181 1.48208 10.3083 1.30415 9.79884V9.79888C1.02177 8.99048 1.21907 8.11419 1.72642 7.92357C1.93657 7.84462 2.14661 7.90568 2.28579 7.97075C2.66431 8.1479 2.99653 8.55775 3.17446 9.06712C3.45685 9.87552 3.2595 10.7518 2.75216 10.9424Z" fill="#5A75FF"/>
</svg>
