<svg width="20" height="20" viewBox="0 0 20 20" fill="none" xmlns="http://www.w3.org/2000/svg">
<path d="M3.33268 3.33317L16.666 16.6665L3.33268 3.33317ZM9.99935 19.3332C8.77368 19.3332 7.56001 19.0918 6.42764 18.6227C5.29526 18.1537 4.26637 17.4662 3.39969 16.5995C2.53301 15.7328 1.84552 14.7039 1.37647 13.5715C0.907429 12.4392 0.666016 11.2255 0.666016 9.99984C0.666016 8.77417 0.907429 7.5605 1.37647 6.42813C1.84552 5.29575 2.53301 4.26685 3.39969 3.40017C4.26637 2.53349 5.29526 1.84601 6.42764 1.37696C7.56001 0.907918 8.77368 0.666504 9.99935 0.666504C12.4747 0.666504 14.8487 1.64983 16.599 3.40017C18.3494 5.15051 19.3327 7.52448 19.3327 9.99984C19.3327 12.4752 18.3494 14.8492 16.599 16.5995C14.8487 18.3498 12.4747 19.3332 9.99935 19.3332Z" stroke="#5A75FF"/>
</svg>
