<svg width="20" height="20" viewBox="0 0 20 20" fill="none" xmlns="http://www.w3.org/2000/svg">
<g clip-path="url(#clip0)">
<path d="M2.72727 3.63623C2.00396 3.63623 1.31026 3.92357 0.7988 4.43503C0.287337 4.94649 0 5.64019 0 6.3635L0 8.18168C0 9.09078 0.909091 9.09078 0.909091 9.09078H2.72727C5.45455 9.09078 7.27273 9.99987 7.27273 9.99987C7.27273 9.99987 5.45455 10.909 2.72727 10.909H0.909091C0.909091 10.909 0 10.909 0 11.818V13.6362C0 14.3595 0.287337 15.0532 0.7988 15.5647C1.31026 16.0762 2.00396 16.3635 2.72727 16.3635C3.45059 16.3635 4.14428 16.0762 4.65575 15.5647C5.16721 15.0532 5.45455 14.3595 5.45455 13.6362V12.518C6.92364 12.2308 8.34 11.6944 9.5 11.169L15.4545 14.5453C18.1818 15.909 20 14.5453 20 14.5453L11.8182 9.99987L20 5.45441C20 5.45441 18.1818 4.09078 15.4545 5.45441L9.5 8.83078C8.34 8.30532 6.92364 7.76896 5.45455 7.48168V6.37078V6.3635C5.45455 5.64019 5.16721 4.94649 4.65575 4.43503C4.14428 3.92357 3.45059 3.63623 2.72727 3.63623V3.63623ZM2.72727 5.45441C2.96838 5.45441 3.19961 5.55019 3.3701 5.72068C3.54058 5.89117 3.63636 6.1224 3.63636 6.3635C3.63636 6.60461 3.54058 6.83584 3.3701 7.00633C3.19961 7.17681 2.96838 7.27259 2.72727 7.27259C2.48617 7.27259 2.25494 7.17681 2.08445 7.00633C1.91396 6.83584 1.81818 6.60461 1.81818 6.3635C1.81818 6.1224 1.91396 5.89117 2.08445 5.72068C2.25494 5.55019 2.48617 5.45441 2.72727 5.45441V5.45441ZM9.51273 9.54532H9.54545C9.66451 9.54961 9.77713 9.60047 9.85907 9.68696C9.941 9.77344 9.98571 9.88864 9.98356 10.0078C9.98142 10.1269 9.93259 10.2404 9.8476 10.3239C9.7626 10.4073 9.64823 10.4541 9.52909 10.4541C9.40996 10.4541 9.29558 10.4073 9.21059 10.3239C9.12559 10.2404 9.07676 10.1269 9.07462 10.0078C9.07247 9.88864 9.11718 9.77344 9.19912 9.68696C9.28105 9.60047 9.39367 9.54961 9.51273 9.54532ZM2.72727 12.7271C2.96838 12.7271 3.19961 12.8229 3.3701 12.9934C3.54058 13.1639 3.63636 13.3951 3.63636 13.6362C3.63636 13.8773 3.54058 14.1086 3.3701 14.2791C3.19961 14.4495 2.96838 14.5453 2.72727 14.5453C2.48617 14.5453 2.25494 14.4495 2.08445 14.2791C1.91396 14.1086 1.81818 13.8773 1.81818 13.6362C1.81818 13.3951 1.91396 13.1639 2.08445 12.9934C2.25494 12.8229 2.48617 12.7271 2.72727 12.7271V12.7271Z" fill="#5A75FF"/>
</g>
<defs>
<clipPath id="clip0">
<rect width="20" height="20" fill="white"/>
</clipPath>
</defs>
</svg>
