<svg width="20" height="20" viewBox="0 0 20 20" fill="none" xmlns="http://www.w3.org/2000/svg">
<path d="M14.2486 0.438027L0.437614 14.2502C0.156978 14.5325 -0.000374168 14.9145 6.68154e-07 15.3125C0.000375505 15.7106 0.158447 16.0922 0.439614 16.374L3.62462 19.5608C3.90654 19.8417 4.28821 19.9996 4.68621 20C5.0842 20.0004 5.46616 19.8432 5.74862 19.5628L19.5616 5.75069C19.8421 5.46822 19.9995 5.08631 19.9995 4.68826C19.9995 4.29021 19.8421 3.9083 19.5616 3.62583L16.3756 0.438027C16.0928 0.157444 15.7105 0 15.3121 0C14.9137 0 14.5315 0.157444 14.2486 0.438027ZM3.92862 15.3111L3.16962 16.07L1.27362 14.1732L2.03262 13.4142L3.92862 15.3111ZM6.96462 15.3111L6.20562 16.07L2.79062 12.6553L3.54962 11.8953L6.96462 15.3111ZM6.96462 12.2753L6.20562 13.0342L4.30762 11.1384L5.06762 10.3784L6.96462 12.2753ZM8.48262 10.7574L7.72362 11.5163L5.82762 9.62045L6.58662 8.8605L8.48262 10.7574ZM11.5176 10.7574L10.7586 11.5163L7.34462 8.10255L8.10362 7.34359L11.5176 10.7574ZM11.5176 7.72257L10.7586 8.48152L8.86262 6.58564L9.62162 5.82669L11.5176 7.72257ZM13.0356 6.20566L12.2766 6.96462L10.3796 5.06774L11.1386 4.30878L13.0356 6.20566ZM16.0716 6.20566L15.3116 6.96462L11.8976 3.54983L12.6566 2.78988L16.0716 6.20566ZM16.0706 3.17086L15.3116 3.92981L13.4156 2.03193L14.1746 1.27397L16.0706 3.17086Z" fill="#5A75FF"/>
</svg>
