<svg width="20" height="20" viewBox="0 0 20 20" fill="none" xmlns="http://www.w3.org/2000/svg">
<path d="M18.3443 1.80584C18.0609 1.43716 17.6964 1.13882 17.2789 0.934013C16.8615 0.72921 16.4025 0.623469 15.9375 0.625017H15.4539L13.2664 9.06252H1.5625V10.3125C1.5625 12.1282 2.28969 13.7549 3.61004 14.8929C4.85938 15.9695 6.57375 16.5625 8.4375 16.5625H9.92672L9.61422 19.375H17.5V9.7672L18.8832 4.43185C19.0014 3.98217 19.0143 3.51128 18.9208 3.05582C18.8273 2.60036 18.63 2.17261 18.3443 1.80584ZM16.25 18.125H11.0108L11.3233 15.3125H8.4375C5.12559 15.3125 2.8125 13.2564 2.8125 10.3125H16.25V18.125ZM17.6732 4.11814L16.3914 9.06252H14.5577L16.4054 1.93611C16.8613 2.05976 17.2502 2.3582 17.4875 2.76668C17.7249 3.17516 17.7917 3.66076 17.6733 4.11814H17.6732Z" fill="#5A75FF"/>
</svg>
