<svg width="196" height="73" viewBox="0 0 196 73" fill="none" xmlns="http://www.w3.org/2000/svg">
<g clip-path="url(#clip0)">
<path d="M47.3138 31.9295C42.1176 30.6118 37.2991 31.3765 33.7456 34.083C30.1922 36.7894 28.0752 41.3071 27.7846 46.8038C27.5232 51.7446 28.8296 56.7255 31.2789 60.128C32.4687 61.7808 33.8662 62.6656 35.4326 62.758C36.9787 62.8493 38.4407 62.165 39.849 61.0922C41.3476 59.9508 42.7857 58.3695 44.1985 56.8157C45.4332 55.458 46.5993 54.1756 47.6394 53.3834C48.5371 52.6997 49.9768 51.9773 51.5008 51.2127C55.0626 49.4258 59.0995 47.4002 59.8875 44.0853C60.2621 42.5094 59.8573 40.8842 58.6843 39.2548C56.2351 35.8523 51.9845 33.1138 47.3138 31.9295ZM56.9996 43.359C56.5429 45.2807 53.0245 47.0459 50.1974 48.4644C48.5468 49.2925 46.9877 50.0747 45.8701 50.9259C44.6127 51.8837 43.3569 53.2648 42.0272 54.727C39.9672 56.9923 37.4036 59.8117 35.6027 59.7053C35.3627 59.6911 34.6323 59.648 33.6678 58.3083C31.6483 55.5029 30.5314 51.1582 30.7529 46.97C30.9946 42.3991 32.6857 38.6952 35.5146 36.5406C38.3434 34.386 42.2811 33.8029 46.602 34.8986C50.5612 35.9026 54.2754 38.2692 56.2949 41.0746C57.2331 42.3773 57.0574 43.1162 56.9996 43.359Z" fill="#E63946"/>
<path d="M34.2758 13.2139C32.1761 12.4562 30.1104 12.678 28.6079 13.8223C27.1054 14.9667 26.2966 16.9345 26.3886 19.2212C26.4732 21.3219 27.2873 23.5452 28.6812 25.4815C30.075 27.4177 31.9048 28.8675 33.8337 29.5636C35.9333 30.3213 37.9992 30.0996 39.5016 28.9553C41.0041 27.8109 41.8129 25.8431 41.7209 23.5563C41.6363 21.4556 40.8221 19.2323 39.4283 17.296C38.0344 15.3598 36.2046 13.91 34.2758 13.2139ZM38.7506 23.6828C38.7804 24.4218 38.6877 25.7703 37.7325 26.4978C36.7774 27.2252 35.4966 26.923 34.8179 26.6781C33.4646 26.1897 32.0986 25.0902 31.0703 23.6618C30.042 22.2333 29.4183 20.5686 29.3589 19.0947C29.3291 18.3557 29.4218 17.0072 30.3769 16.2797C31.3321 15.5523 32.613 15.8544 33.2915 16.0994C34.6449 16.5878 36.0109 17.6873 37.0391 19.1157C38.0673 20.5442 38.6913 22.2088 38.7506 23.6828Z" fill="#E63946"/>
<path d="M22.0727 22.508C19.9731 21.7502 17.9073 21.9719 16.4048 23.1163C14.9023 24.2606 14.0934 26.2285 14.1855 28.5152C14.2701 30.616 15.0843 32.8393 16.4781 34.7755C17.872 36.7118 19.7018 38.1615 21.6306 38.8576C23.7303 39.6154 25.7961 39.3938 27.2986 38.2494C28.8011 37.105 29.6099 35.1372 29.5178 32.8504C29.4332 30.7496 28.6191 28.5264 27.2252 26.59C25.8313 24.6539 24.0014 23.204 22.0727 22.508ZM26.5474 32.9771C26.5772 33.7161 26.4845 35.0645 25.5294 35.7919C24.5743 36.5194 23.2933 36.2172 22.6148 35.9723C21.2615 35.4839 19.8955 34.3844 18.8673 32.956C17.8389 31.5275 17.2152 29.8628 17.1558 28.3888C17.126 27.6498 17.2187 26.3014 18.1739 25.5739C19.129 24.8464 20.4098 25.1486 21.0884 25.3936C22.4417 25.882 23.8077 26.9815 24.836 28.4099C25.8642 29.8384 26.4881 31.5031 26.5474 32.9771Z" fill="#E63946"/>
<path d="M52.9306 17.3945C51.5067 16.2868 49.8987 15.9186 48.4031 16.3577C47.1995 16.7111 46.1809 17.5824 45.535 18.8112C44.6447 20.5044 44.5059 22.7065 45.1543 24.8525C45.6841 26.6061 46.6853 28.1237 47.9735 29.1259C49.3974 30.2336 51.0054 30.6018 52.5011 30.1626C53.0187 30.0106 53.502 29.7629 53.9362 29.4322C54.5117 28.9938 55.0011 28.4094 55.3693 27.709C56.2595 26.0158 56.3983 23.8138 55.75 21.6679L55.75 21.6678C55.2201 19.9143 54.2189 18.3966 52.9306 17.3945ZM52.911 22.5753C53.3171 23.92 53.2585 25.2954 52.7543 26.2545C52.5687 26.6071 52.2328 27.0612 51.685 27.2221C50.3629 27.6103 48.6376 26.0789 47.9931 23.9451C47.5869 22.6004 47.6455 21.225 48.1498 20.2657C48.2727 20.0319 48.4618 19.7536 48.7348 19.5457C48.8737 19.4399 49.0343 19.3523 49.2189 19.2981C50.541 18.9101 52.2664 20.4414 52.911 22.5753Z" fill="#E63946"/>
<path d="M21.8339 42.6148C20.0274 41.3509 17.9394 40.845 16.1052 41.2269C14.774 41.5039 13.6666 42.252 12.9869 43.3329C12.1421 44.6764 12.0154 46.3658 12.6299 48.0899C13.1859 49.6497 14.3051 51.0775 15.7812 52.1103L15.7813 52.1104C17.5878 53.3743 19.6758 53.8802 21.51 53.4984C22.2688 53.3404 22.9549 53.0295 23.5304 52.5912C23.9646 52.2605 24.336 51.8571 24.6283 51.3924C25.4732 50.0487 25.5998 48.3593 24.9853 46.6353C24.4292 45.0757 23.31 43.6479 21.8339 42.6148ZM22.132 49.7318C21.8226 50.2237 21.3023 50.4218 20.9204 50.5014C19.8813 50.7177 18.5852 50.3741 17.4534 49.5821L17.4534 49.5822C15.6573 48.3253 14.7367 46.1813 15.4833 44.9937C15.7926 44.5018 16.313 44.3036 16.695 44.224C17.7341 44.0077 19.0302 44.3513 20.162 45.1433C21.9581 46.4001 22.8786 48.5442 22.132 49.7318Z" fill="#E63946"/>
</g>
<path d="M87.816 34.4V47H86.052V35.966H78.744V47H76.962V34.4H87.816ZM95.9932 37.37C96.9532 37.37 97.7992 37.574 98.5312 37.982C99.2752 38.39 99.8452 38.966 100.241 39.71C100.649 40.442 100.853 41.288 100.853 42.248C100.853 43.196 100.655 44.042 100.259 44.786C99.8632 45.518 99.3112 46.088 98.6032 46.496C97.8952 46.904 97.0852 47.108 96.1732 47.108C95.4532 47.108 94.8052 46.982 94.2292 46.73C93.6532 46.466 93.1732 46.088 92.7892 45.596V50.492H91.0432V42.266C91.0432 41.306 91.2472 40.454 91.6552 39.71C92.0752 38.966 92.6572 38.39 93.4012 37.982C94.1572 37.574 95.0212 37.37 95.9932 37.37ZM95.9392 45.596C96.5512 45.596 97.1032 45.458 97.5952 45.182C98.0872 44.894 98.4652 44.498 98.7292 43.994C99.0052 43.478 99.1432 42.896 99.1432 42.248C99.1432 41.6 99.0052 41.024 98.7292 40.52C98.4652 40.004 98.0872 39.602 97.5952 39.314C97.1152 39.026 96.5632 38.882 95.9392 38.882C94.9912 38.882 94.2232 39.194 93.6352 39.818C93.0472 40.43 92.7532 41.234 92.7532 42.23C92.7532 42.89 92.8852 43.478 93.1492 43.994C93.4252 44.498 93.8032 44.894 94.2832 45.182C94.7632 45.458 95.3152 45.596 95.9392 45.596ZM112.069 37.46V47H110.413V45.596C110.065 46.076 109.609 46.448 109.045 46.712C108.481 46.976 107.863 47.108 107.191 47.108C105.919 47.108 104.917 46.76 104.185 46.064C103.453 45.356 103.087 44.318 103.087 42.95V37.46H104.815V42.752C104.815 43.676 105.037 44.378 105.481 44.858C105.925 45.326 106.561 45.56 107.389 45.56C108.301 45.56 109.021 45.284 109.549 44.732C110.077 44.18 110.341 43.4 110.341 42.392V37.46H112.069ZM123.876 37.37C124.8 37.37 125.628 37.58 126.36 38C127.092 38.408 127.668 38.984 128.088 39.728C128.508 40.46 128.718 41.294 128.718 42.23C128.718 43.166 128.508 44.006 128.088 44.75C127.668 45.482 127.092 46.058 126.36 46.478C125.628 46.898 124.8 47.108 123.876 47.108C123.036 47.108 122.274 46.934 121.59 46.586C120.906 46.238 120.342 45.752 119.898 45.128C119.466 44.492 119.196 43.772 119.088 42.968H117.162V47H115.434V37.46H117.162V41.366H119.106C119.226 40.574 119.502 39.878 119.934 39.278C120.378 38.666 120.936 38.198 121.608 37.874C122.292 37.538 123.048 37.37 123.876 37.37ZM123.876 45.596C124.464 45.596 124.992 45.458 125.46 45.182C125.94 44.906 126.318 44.516 126.594 44.012C126.87 43.496 127.008 42.902 127.008 42.23C127.008 41.57 126.87 40.988 126.594 40.484C126.318 39.968 125.94 39.572 125.46 39.296C124.992 39.02 124.464 38.882 123.876 38.882C123.288 38.882 122.754 39.02 122.274 39.296C121.794 39.572 121.416 39.968 121.14 40.484C120.876 40.988 120.744 41.57 120.744 42.23C120.744 42.902 120.876 43.496 121.14 44.012C121.416 44.516 121.794 44.906 122.274 45.182C122.754 45.458 123.288 45.596 123.876 45.596ZM143.135 37.37C144.335 37.37 145.283 37.718 145.979 38.414C146.687 39.11 147.041 40.142 147.041 41.51V47H145.313V41.708C145.313 40.784 145.097 40.088 144.665 39.62C144.245 39.152 143.639 38.918 142.847 38.918C141.971 38.918 141.275 39.194 140.759 39.746C140.243 40.286 139.985 41.066 139.985 42.086V47H138.257V41.708C138.257 40.784 138.041 40.088 137.609 39.62C137.189 39.152 136.583 38.918 135.791 38.918C134.915 38.918 134.219 39.194 133.703 39.746C133.187 40.286 132.929 41.066 132.929 42.086V47H131.201V37.46H132.857V38.882C133.205 38.39 133.661 38.018 134.225 37.766C134.789 37.502 135.431 37.37 136.151 37.37C136.895 37.37 137.555 37.52 138.131 37.82C138.707 38.12 139.151 38.558 139.463 39.134C139.823 38.582 140.321 38.15 140.957 37.838C141.605 37.526 142.331 37.37 143.135 37.37Z" fill="#515151"/>
<path d="M166.073 34.4V47H164.273V41.384H157.037V47H155.237V34.4H157.037V39.818H164.273V34.4H166.073ZM180.839 34.4V47H179.039V41.384H171.803V47H170.003V34.4H171.803V39.818H179.039V34.4H180.839Z" fill="#E63946"/>
<defs>
<clipPath id="clip0">
<rect width="51.2567" height="51.6802" fill="white" transform="matrix(0.795532 -0.605912 0.584231 0.811587 0 31.0566)"/>
</clipPath>
</defs>
</svg>
