<svg width="195" height="73" viewBox="0 0 195 73" fill="none" xmlns="http://www.w3.org/2000/svg">
<g clip-path="url(#clip0)">
<path d="M47.3138 31.9295C42.1176 30.6118 37.2991 31.3765 33.7456 34.083C30.1922 36.7894 28.0752 41.3071 27.7846 46.8038C27.5232 51.7446 28.8296 56.7255 31.2789 60.128C32.4687 61.7808 33.8662 62.6656 35.4326 62.758C36.9787 62.8493 38.4407 62.165 39.849 61.0922C41.3476 59.9508 42.7857 58.3695 44.1985 56.8157C45.4332 55.458 46.5993 54.1756 47.6394 53.3834C48.5371 52.6997 49.9768 51.9773 51.5008 51.2127C55.0626 49.4258 59.0995 47.4002 59.8875 44.0853C60.2621 42.5094 59.8573 40.8842 58.6843 39.2548C56.2351 35.8523 51.9845 33.1138 47.3138 31.9295ZM56.9996 43.359C56.5429 45.2807 53.0245 47.0459 50.1974 48.4644C48.5468 49.2925 46.9877 50.0747 45.8701 50.9259C44.6127 51.8837 43.3569 53.2648 42.0272 54.727C39.9672 56.9923 37.4036 59.8117 35.6027 59.7053C35.3627 59.6911 34.6323 59.648 33.6678 58.3083C31.6483 55.5029 30.5314 51.1582 30.7529 46.97C30.9946 42.3991 32.6857 38.6952 35.5146 36.5406C38.3434 34.386 42.2811 33.8029 46.602 34.8986C50.5612 35.9026 54.2754 38.2692 56.2949 41.0746C57.2331 42.3773 57.0574 43.1162 56.9996 43.359Z" fill="#5A75FF"/>
<path d="M34.2758 13.2144C32.1761 12.4567 30.1104 12.6785 28.6079 13.8228C27.1054 14.9672 26.2966 16.935 26.3886 19.2217C26.4732 21.3224 27.2873 23.5457 28.6812 25.482C30.075 27.4182 31.9048 28.868 33.8337 29.564C35.9333 30.3217 37.9992 30.1001 39.5016 28.9558C41.0041 27.8114 41.8129 25.8436 41.7209 23.5568C41.6363 21.4561 40.8221 19.2328 39.4283 17.2965C38.0344 15.3603 36.2046 13.9104 34.2758 13.2144ZM38.7506 23.6833C38.7804 24.4223 38.6877 25.7708 37.7325 26.4983C36.7774 27.2257 35.4966 26.9235 34.8179 26.6786C33.4646 26.1902 32.0986 25.0907 31.0703 23.6623C30.042 22.2338 29.4183 20.5691 29.3589 19.0951C29.3291 18.3562 29.4218 17.0077 30.3769 16.2802C31.3321 15.5528 32.613 15.8549 33.2915 16.0998C34.6449 16.5883 36.0109 17.6878 37.0391 19.1162C38.0673 20.5447 38.6913 22.2093 38.7506 23.6833Z" fill="#5A75FF"/>
<path d="M22.0727 22.509C19.9731 21.7512 17.9073 21.9729 16.4048 23.1172C14.9023 24.2616 14.0934 26.2295 14.1855 28.5162C14.2701 30.6169 15.0843 32.8402 16.4781 34.7765C17.872 36.7127 19.7018 38.1625 21.6306 38.8586C23.7303 39.6163 25.7961 39.3947 27.2986 38.2504C28.8011 37.106 29.6099 35.1382 29.5178 32.8513C29.4332 30.7506 28.6191 28.5274 27.2252 26.591C25.8313 24.6548 24.0014 23.205 22.0727 22.509ZM26.5474 32.9781C26.5772 33.717 26.4845 35.0655 25.5294 35.7929C24.5743 36.5204 23.2933 36.2182 22.6148 35.9733C21.2615 35.4848 19.8955 34.3854 18.8673 32.9569C17.8389 31.5284 17.2152 29.8638 17.1558 28.3898C17.126 27.6508 17.2187 26.3024 18.1739 25.5749C19.129 24.8474 20.4098 25.1496 21.0884 25.3946C22.4417 25.883 23.8077 26.9825 24.836 28.4109C25.8642 29.8394 26.4881 31.504 26.5474 32.9781Z" fill="#5A75FF"/>
<path d="M52.9306 17.395C51.5067 16.2873 49.8987 15.9191 48.4031 16.3582C47.1995 16.7116 46.1809 17.5829 45.535 18.8117C44.6447 20.5049 44.5059 22.707 45.1543 24.8529C45.6841 26.6066 46.6853 28.1242 47.9735 29.1264C49.3974 30.2341 51.0054 30.6023 52.5011 30.1631C53.0187 30.0111 53.502 29.7634 53.9362 29.4327C54.5117 28.9943 55.0011 28.4099 55.3693 27.7095C56.2595 26.0163 56.3983 23.8143 55.75 21.6684L55.75 21.6683C55.2201 19.9147 54.2189 18.397 52.9306 17.395ZM52.911 22.5758C53.3171 23.9205 53.2585 25.2959 52.7543 26.255C52.5687 26.6076 52.2328 27.0617 51.685 27.2226C50.3629 27.6108 48.6376 26.0794 47.9931 23.9456C47.5869 22.6009 47.6455 21.2255 48.1498 20.2662C48.2727 20.0324 48.4618 19.7541 48.7348 19.5462C48.8737 19.4404 49.0343 19.3528 49.2189 19.2986C50.541 18.9106 52.2664 20.4419 52.911 22.5758Z" fill="#5A75FF"/>
<path d="M21.8339 42.6153C20.0274 41.3514 17.9394 40.8455 16.1052 41.2273C14.774 41.5044 13.6666 42.2525 12.9869 43.3334C12.1421 44.6769 12.0154 46.3663 12.6299 48.0904C13.1859 49.6502 14.3051 51.078 15.7812 52.1108L15.7813 52.1109C17.5878 53.3748 19.6758 53.8807 21.51 53.4989C22.2688 53.3409 22.9549 53.03 23.5304 52.5917C23.9646 52.2609 24.336 51.8576 24.6283 51.3929C25.4732 50.0492 25.5998 48.3598 24.9853 46.6358C24.4292 45.0762 23.31 43.6484 21.8339 42.6153ZM22.132 49.7322C21.8226 50.2242 21.3023 50.4223 20.9204 50.5018C19.8813 50.7181 18.5852 50.3746 17.4534 49.5826L17.4534 49.5827C15.6573 48.3258 14.7367 46.1817 15.4833 44.9941C15.7926 44.5022 16.313 44.3041 16.695 44.2245C17.7341 44.0082 19.0302 44.3518 20.162 45.1437C21.9581 46.4006 22.8786 48.5447 22.132 49.7322Z" fill="#5A75FF"/>
</g>
<path d="M91.816 18.4V31H90.052V19.966H82.744V31H80.962V18.4H91.816ZM99.9932 21.37C100.953 21.37 101.799 21.574 102.531 21.982C103.275 22.39 103.845 22.966 104.241 23.71C104.649 24.442 104.853 25.288 104.853 26.248C104.853 27.196 104.655 28.042 104.259 28.786C103.863 29.518 103.311 30.088 102.603 30.496C101.895 30.904 101.085 31.108 100.173 31.108C99.4532 31.108 98.8052 30.982 98.2292 30.73C97.6532 30.466 97.1732 30.088 96.7892 29.596V34.492H95.0432V26.266C95.0432 25.306 95.2472 24.454 95.6552 23.71C96.0752 22.966 96.6572 22.39 97.4012 21.982C98.1572 21.574 99.0212 21.37 99.9932 21.37ZM99.9392 29.596C100.551 29.596 101.103 29.458 101.595 29.182C102.087 28.894 102.465 28.498 102.729 27.994C103.005 27.478 103.143 26.896 103.143 26.248C103.143 25.6 103.005 25.024 102.729 24.52C102.465 24.004 102.087 23.602 101.595 23.314C101.115 23.026 100.563 22.882 99.9392 22.882C98.9912 22.882 98.2232 23.194 97.6352 23.818C97.0472 24.43 96.7532 25.234 96.7532 26.23C96.7532 26.89 96.8852 27.478 97.1492 27.994C97.4252 28.498 97.8032 28.894 98.2832 29.182C98.7632 29.458 99.3152 29.596 99.9392 29.596ZM116.069 21.46V31H114.413V29.596C114.065 30.076 113.609 30.448 113.045 30.712C112.481 30.976 111.863 31.108 111.191 31.108C109.919 31.108 108.917 30.76 108.185 30.064C107.453 29.356 107.087 28.318 107.087 26.95V21.46H108.815V26.752C108.815 27.676 109.037 28.378 109.481 28.858C109.925 29.326 110.561 29.56 111.389 29.56C112.301 29.56 113.021 29.284 113.549 28.732C114.077 28.18 114.341 27.4 114.341 26.392V21.46H116.069ZM127.876 21.37C128.8 21.37 129.628 21.58 130.36 22C131.092 22.408 131.668 22.984 132.088 23.728C132.508 24.46 132.718 25.294 132.718 26.23C132.718 27.166 132.508 28.006 132.088 28.75C131.668 29.482 131.092 30.058 130.36 30.478C129.628 30.898 128.8 31.108 127.876 31.108C127.036 31.108 126.274 30.934 125.59 30.586C124.906 30.238 124.342 29.752 123.898 29.128C123.466 28.492 123.196 27.772 123.088 26.968H121.162V31H119.434V21.46H121.162V25.366H123.106C123.226 24.574 123.502 23.878 123.934 23.278C124.378 22.666 124.936 22.198 125.608 21.874C126.292 21.538 127.048 21.37 127.876 21.37ZM127.876 29.596C128.464 29.596 128.992 29.458 129.46 29.182C129.94 28.906 130.318 28.516 130.594 28.012C130.87 27.496 131.008 26.902 131.008 26.23C131.008 25.57 130.87 24.988 130.594 24.484C130.318 23.968 129.94 23.572 129.46 23.296C128.992 23.02 128.464 22.882 127.876 22.882C127.288 22.882 126.754 23.02 126.274 23.296C125.794 23.572 125.416 23.968 125.14 24.484C124.876 24.988 124.744 25.57 124.744 26.23C124.744 26.902 124.876 27.496 125.14 28.012C125.416 28.516 125.794 28.906 126.274 29.182C126.754 29.458 127.288 29.596 127.876 29.596ZM147.135 21.37C148.335 21.37 149.283 21.718 149.979 22.414C150.687 23.11 151.041 24.142 151.041 25.51V31H149.313V25.708C149.313 24.784 149.097 24.088 148.665 23.62C148.245 23.152 147.639 22.918 146.847 22.918C145.971 22.918 145.275 23.194 144.759 23.746C144.243 24.286 143.985 25.066 143.985 26.086V31H142.257V25.708C142.257 24.784 142.041 24.088 141.609 23.62C141.189 23.152 140.583 22.918 139.791 22.918C138.915 22.918 138.219 23.194 137.703 23.746C137.187 24.286 136.929 25.066 136.929 26.086V31H135.201V21.46H136.857V22.882C137.205 22.39 137.661 22.018 138.225 21.766C138.789 21.502 139.431 21.37 140.151 21.37C140.895 21.37 141.555 21.52 142.131 21.82C142.707 22.12 143.151 22.558 143.463 23.134C143.823 22.582 144.321 22.15 144.957 21.838C145.605 21.526 146.331 21.37 147.135 21.37Z" fill="#515151"/>
<path d="M170.073 18.4V31H168.273V25.384H161.037V31H159.237V18.4H161.037V23.818H168.273V18.4H170.073ZM184.839 18.4V31H183.039V25.384H175.803V31H174.003V18.4H175.803V23.818H183.039V18.4H184.839Z" fill="#5A75FF"/>
<path d="M78.182 43.256C79.862 43.256 81.188 43.748 82.16 44.732C83.132 45.704 83.618 47.102 83.618 48.926V56H81.818V52.526H74.546V56H72.782V48.926C72.782 47.102 73.268 45.704 74.24 44.732C75.212 43.748 76.526 43.256 78.182 43.256ZM81.818 50.96V48.764C81.818 47.48 81.494 46.508 80.846 45.848C80.21 45.188 79.322 44.858 78.182 44.858C77.042 44.858 76.148 45.188 75.5 45.848C74.864 46.508 74.546 47.48 74.546 48.764V50.96H81.818ZM96.0345 42.644V56H94.3785V54.488C93.9945 55.016 93.5085 55.418 92.9205 55.694C92.3325 55.97 91.6845 56.108 90.9765 56.108C90.0525 56.108 89.2245 55.904 88.4925 55.496C87.7605 55.088 87.1845 54.518 86.7645 53.786C86.3565 53.042 86.1525 52.19 86.1525 51.23C86.1525 50.27 86.3565 49.424 86.7645 48.692C87.1845 47.96 87.7605 47.39 88.4925 46.982C89.2245 46.574 90.0525 46.37 90.9765 46.37C91.6605 46.37 92.2905 46.502 92.8665 46.766C93.4425 47.018 93.9225 47.396 94.3065 47.9V42.644H96.0345ZM91.1205 54.596C91.7205 54.596 92.2665 54.458 92.7585 54.182C93.2505 53.894 93.6345 53.498 93.9105 52.994C94.1865 52.478 94.3245 51.89 94.3245 51.23C94.3245 50.57 94.1865 49.988 93.9105 49.484C93.6345 48.968 93.2505 48.572 92.7585 48.296C92.2665 48.02 91.7205 47.882 91.1205 47.882C90.5085 47.882 89.9565 48.02 89.4645 48.296C88.9845 48.572 88.6005 48.968 88.3125 49.484C88.0365 49.988 87.8985 50.57 87.8985 51.23C87.8985 51.89 88.0365 52.478 88.3125 52.994C88.6005 53.498 88.9845 53.894 89.4645 54.182C89.9565 54.458 90.5085 54.596 91.1205 54.596ZM111.238 46.37C112.438 46.37 113.386 46.718 114.082 47.414C114.79 48.11 115.144 49.142 115.144 50.51V56H113.416V50.708C113.416 49.784 113.2 49.088 112.768 48.62C112.348 48.152 111.742 47.918 110.95 47.918C110.074 47.918 109.378 48.194 108.862 48.746C108.346 49.286 108.088 50.066 108.088 51.086V56H106.36V50.708C106.36 49.784 106.144 49.088 105.712 48.62C105.292 48.152 104.686 47.918 103.894 47.918C103.018 47.918 102.322 48.194 101.806 48.746C101.29 49.286 101.032 50.066 101.032 51.086V56H99.304V46.46H100.96V47.882C101.308 47.39 101.764 47.018 102.328 46.766C102.892 46.502 103.534 46.37 104.254 46.37C104.998 46.37 105.658 46.52 106.234 46.82C106.81 47.12 107.254 47.558 107.566 48.134C107.926 47.582 108.424 47.15 109.06 46.838C109.708 46.526 110.434 46.37 111.238 46.37ZM118.324 46.46H120.052V56H118.324V46.46ZM119.188 44.624C118.852 44.624 118.57 44.516 118.342 44.3C118.126 44.084 118.018 43.82 118.018 43.508C118.018 43.196 118.126 42.932 118.342 42.716C118.57 42.488 118.852 42.374 119.188 42.374C119.524 42.374 119.8 42.482 120.016 42.698C120.244 42.902 120.358 43.16 120.358 43.472C120.358 43.796 120.244 44.072 120.016 44.3C119.8 44.516 119.524 44.624 119.188 44.624ZM128.445 46.37C129.657 46.37 130.617 46.724 131.325 47.432C132.045 48.128 132.405 49.154 132.405 50.51V56H130.677V50.708C130.677 49.784 130.455 49.088 130.011 48.62C129.567 48.152 128.931 47.918 128.103 47.918C127.167 47.918 126.429 48.194 125.889 48.746C125.349 49.286 125.079 50.066 125.079 51.086V56H123.351V46.46H125.007V47.9C125.355 47.408 125.823 47.03 126.411 46.766C127.011 46.502 127.689 46.37 128.445 46.37ZM134.991 50.312H139.833V51.806H134.991V50.312ZM147.551 46.37C148.475 46.37 149.303 46.574 150.035 46.982C150.767 47.39 151.337 47.96 151.745 48.692C152.165 49.424 152.375 50.27 152.375 51.23C152.375 52.19 152.165 53.042 151.745 53.786C151.337 54.518 150.767 55.088 150.035 55.496C149.303 55.904 148.475 56.108 147.551 56.108C146.867 56.108 146.237 55.976 145.661 55.712C145.097 55.448 144.617 55.064 144.221 54.56V59.492H142.493V46.46H144.149V47.972C144.533 47.444 145.019 47.048 145.607 46.784C146.195 46.508 146.843 46.37 147.551 46.37ZM147.407 54.596C148.019 54.596 148.565 54.458 149.045 54.182C149.537 53.894 149.921 53.498 150.197 52.994C150.485 52.478 150.629 51.89 150.629 51.23C150.629 50.57 150.485 49.988 150.197 49.484C149.921 48.968 149.537 48.572 149.045 48.296C148.565 48.02 148.019 47.882 147.407 47.882C146.807 47.882 146.261 48.026 145.769 48.314C145.289 48.59 144.905 48.98 144.617 49.484C144.341 49.988 144.203 50.57 144.203 51.23C144.203 51.89 144.341 52.478 144.617 52.994C144.893 53.498 145.277 53.894 145.769 54.182C146.261 54.458 146.807 54.596 147.407 54.596ZM163.763 46.46V56H162.107V54.488C161.723 55.016 161.237 55.418 160.649 55.694C160.061 55.97 159.413 56.108 158.705 56.108C157.781 56.108 156.953 55.904 156.221 55.496C155.489 55.088 154.913 54.518 154.493 53.786C154.085 53.042 153.881 52.19 153.881 51.23C153.881 50.27 154.085 49.424 154.493 48.692C154.913 47.96 155.489 47.39 156.221 46.982C156.953 46.574 157.781 46.37 158.705 46.37C159.389 46.37 160.019 46.502 160.595 46.766C161.171 47.018 161.651 47.396 162.035 47.9V46.46H163.763ZM158.849 54.596C159.449 54.596 159.995 54.458 160.487 54.182C160.979 53.894 161.363 53.498 161.639 52.994C161.915 52.478 162.053 51.89 162.053 51.23C162.053 50.57 161.915 49.988 161.639 49.484C161.363 48.968 160.979 48.572 160.487 48.296C159.995 48.02 159.449 47.882 158.849 47.882C158.237 47.882 157.685 48.02 157.193 48.296C156.713 48.572 156.329 48.968 156.041 49.484C155.765 49.988 155.627 50.57 155.627 51.23C155.627 51.89 155.765 52.478 156.041 52.994C156.329 53.498 156.713 53.894 157.193 54.182C157.685 54.458 158.237 54.596 158.849 54.596ZM172.127 46.37C173.339 46.37 174.299 46.724 175.007 47.432C175.727 48.128 176.087 49.154 176.087 50.51V56H174.359V50.708C174.359 49.784 174.137 49.088 173.693 48.62C173.249 48.152 172.613 47.918 171.785 47.918C170.849 47.918 170.111 48.194 169.571 48.746C169.031 49.286 168.761 50.066 168.761 51.086V56H167.033V46.46H168.689V47.9C169.037 47.408 169.505 47.03 170.093 46.766C170.693 46.502 171.371 46.37 172.127 46.37ZM183.639 54.596C184.779 54.596 185.697 54.212 186.393 53.444L187.329 54.56C186.909 55.064 186.375 55.448 185.727 55.712C185.091 55.976 184.377 56.108 183.585 56.108C182.577 56.108 181.683 55.904 180.903 55.496C180.123 55.076 179.517 54.494 179.085 53.75C178.665 53.006 178.455 52.166 178.455 51.23C178.455 50.306 178.659 49.472 179.067 48.728C179.487 47.984 180.057 47.408 180.777 47C181.509 46.58 182.331 46.37 183.243 46.37C184.107 46.37 184.893 46.568 185.601 46.964C186.309 47.348 186.873 47.894 187.293 48.602C187.713 49.31 187.929 50.126 187.941 51.05L180.363 52.526C180.603 53.186 181.005 53.696 181.569 54.056C182.145 54.416 182.835 54.596 183.639 54.596ZM183.243 47.828C182.643 47.828 182.103 47.966 181.623 48.242C181.155 48.518 180.789 48.908 180.525 49.412C180.261 49.904 180.129 50.48 180.129 51.14V51.32L186.231 50.168C186.075 49.472 185.727 48.908 185.187 48.476C184.647 48.044 183.999 47.828 183.243 47.828ZM193.257 56.108C192.333 56.108 191.619 55.856 191.115 55.352C190.611 54.836 190.359 54.116 190.359 53.192V42.644H192.087V53.048C192.087 53.564 192.207 53.96 192.447 54.236C192.699 54.512 193.071 54.65 193.563 54.65C193.863 54.65 194.145 54.59 194.409 54.47L194.499 55.892C194.103 56.036 193.689 56.108 193.257 56.108Z" fill="#515151"/>
<defs>
<clipPath id="clip0">
<rect width="51.2567" height="51.6802" fill="white" transform="matrix(0.795532 -0.605912 0.584231 0.811587 0 31.0571)"/>
</clipPath>
</defs>
</svg>
