<svg width="20" height="20" viewBox="0 0 20 20" fill="none" xmlns="http://www.w3.org/2000/svg">
<path d="M11.875 6.25H16.25V7.5H11.875V6.25Z" fill="#5A75FF"/>
<path d="M11.875 9.375H16.25V10.625H11.875V9.375Z" fill="#5A75FF"/>
<path d="M11.875 12.5H16.25V13.75H11.875V12.5Z" fill="#5A75FF"/>
<path d="M3.75 6.25H8.125V7.5H3.75V6.25Z" fill="#5A75FF"/>
<path d="M3.75 9.375H8.125V10.625H3.75V9.375Z" fill="#5A75FF"/>
<path d="M3.75 12.5H8.125V13.75H3.75V12.5Z" fill="#5A75FF"/>
<path d="M17.5 3.125H2.5C2.16858 3.12533 1.85083 3.25713 1.61648 3.49148C1.38213 3.72583 1.25033 4.04358 1.25 4.375V15.625C1.25033 15.9564 1.38213 16.2742 1.61648 16.5085C1.85083 16.7429 2.16858 16.8747 2.5 16.875H17.5C17.8314 16.8747 18.1492 16.7429 18.3835 16.5085C18.6179 16.2742 18.7497 15.9564 18.75 15.625V4.375C18.7497 4.04358 18.6179 3.72583 18.3835 3.49148C18.1492 3.25713 17.8314 3.12533 17.5 3.125ZM2.5 4.375H9.375V15.625H2.5V4.375ZM10.625 15.625V4.375H17.5V15.625H10.625Z" fill="#5A75FF"/>
</svg>
