<svg width="20" height="20" viewBox="0 0 20 20" fill="none" xmlns="http://www.w3.org/2000/svg">
<path d="M7.28868 11.0341C7.28868 10.7835 7.08547 10.5806 6.83472 10.5806H5.25059C5.00013 10.5806 4.79688 10.7835 4.79688 11.0341V12.618C4.79688 12.8689 5.00013 13.0719 5.25059 13.0719H6.83472C7.08547 13.0719 7.28868 12.8689 7.28868 12.618V11.0341Z" fill="#5A75FF"/>
<path d="M11.2474 11.0341C11.2474 10.7835 11.0442 10.5806 10.7939 10.5806H9.20957C8.95912 10.5806 8.75586 10.7835 8.75586 11.0341V12.618C8.75586 12.8689 8.95912 13.0719 9.20957 13.0719H10.7939C11.0442 13.0719 11.2474 12.8689 11.2474 12.618V11.0341Z" fill="#5A75FF"/>
<path d="M15.2066 11.0341C15.2066 10.7835 15.0034 10.5806 14.7529 10.5806H13.1688C12.9181 10.5806 12.7148 10.7835 12.7148 11.0341V12.618C12.7148 12.8689 12.9181 13.0719 13.1688 13.0719H14.7529C15.0034 13.0719 15.2066 12.8689 15.2066 12.618V11.0341Z" fill="#5A75FF"/>
<path d="M7.28868 14.9933C7.28868 14.7424 7.08547 14.5396 6.83472 14.5396H5.25059C5.00013 14.5396 4.79688 14.7424 4.79688 14.9933V16.5769C4.79688 16.8276 5.00013 17.0307 5.25059 17.0307H6.83472C7.08547 17.0307 7.28868 16.8276 7.28868 16.5769V14.9933Z" fill="#5A75FF"/>
<path d="M11.2474 14.9933C11.2474 14.7424 11.0442 14.5396 10.7939 14.5396H9.20957C8.95912 14.5396 8.75586 14.7424 8.75586 14.9933V16.5769C8.75586 16.8276 8.95912 17.0307 9.20957 17.0307H10.7939C11.0442 17.0307 11.2474 16.8276 11.2474 16.5769V14.9933Z" fill="#5A75FF"/>
<path d="M15.2066 14.9933C15.2066 14.7424 15.0034 14.5396 14.7531 14.5396H13.1688C12.9181 14.5396 12.7148 14.7424 12.7148 14.9933V16.5769C12.7148 16.8276 12.9181 17.0307 13.1688 17.0307H14.7531C15.0034 17.0307 15.2066 16.8276 15.2066 16.5769V14.9933Z" fill="#5A75FF"/>
<path d="M18.0385 2.22695V4.64628C18.0385 5.73979 17.1514 6.62099 16.0581 6.62099H14.8088C13.7153 6.62099 12.8165 5.73979 12.8165 4.64628V2.21826H7.18545V4.64628C7.18545 5.73979 6.28663 6.62099 5.19336 6.62099H3.94379C2.85049 6.62099 1.96343 5.73979 1.96343 4.64628V2.22695C1.00786 2.25575 0.222656 3.04645 0.222656 4.01832V18.1967C0.222656 19.1869 1.02519 20.0001 2.01534 20.0001H17.9866C18.9753 20.0001 19.7793 19.1852 19.7793 18.1967V4.01832C19.7793 3.04645 18.9941 2.25575 18.0385 2.22695ZM17.4583 17.3138C17.4583 17.7417 17.1113 18.0889 16.6833 18.0889H3.28453C2.85647 18.0889 2.50953 17.7417 2.50953 17.3138V9.99014C2.50953 9.56208 2.85643 9.21494 3.28453 9.21494H16.6832C17.1113 9.21494 17.4582 9.56208 17.4582 9.99014L17.4583 17.3138Z" fill="#5A75FF"/>
<path d="M3.93898 5.32396H5.17474C5.54983 5.32396 5.85396 5.02028 5.85396 4.64519V0.67901C5.85396 0.303881 5.54983 0 5.17474 0H3.93898C3.56385 0 3.25977 0.303881 3.25977 0.67901V4.64519C3.25977 5.02028 3.56385 5.32396 3.93898 5.32396Z" fill="#5A75FF"/>
<path d="M14.7925 5.32396H16.0282C16.4031 5.32396 16.7072 5.02028 16.7072 4.64519V0.67901C16.7072 0.303881 16.4031 0 16.0282 0H14.7925C14.4174 0 14.1133 0.303881 14.1133 0.67901V4.64519C14.1133 5.02028 14.4174 5.32396 14.7925 5.32396Z" fill="#5A75FF"/>
</svg>
