<svg width="20" height="20" viewBox="0 0 20 20" fill="none" xmlns="http://www.w3.org/2000/svg">
<path d="M0.889412 17.5H11.4706C11.9571 17.5 12.3529 17.0794 12.3529 16.5625V4.6875C12.3529 4.67312 12.3471 4.66062 12.3453 4.64687C12.3437 4.63377 12.3411 4.62082 12.3376 4.60813C12.3261 4.55486 12.3013 4.50585 12.2659 4.46625L8.14882 0.091875C8.10218 0.0450493 8.04256 0.0154593 7.97882 0.0075C7.96647 0.00625 7.95471 0 7.94118 0H0.885882C0.397647 0 0 0.420625 0 0.9375V16.5625C0 17.0794 0.398824 17.5 0.889412 17.5ZM8.23529 1.06688L11.3488 4.375H8.52941C8.45141 4.375 8.3766 4.34208 8.32144 4.28347C8.26628 4.22487 8.23529 4.14538 8.23529 4.0625V1.06688ZM0.588235 0.9375C0.588235 0.765 0.721765 0.625 0.885882 0.625H7.64706V4.0625C7.64706 4.57938 8.04294 5 8.52941 5H11.7647V16.5625C11.7647 16.6454 11.7337 16.7249 11.6786 16.7835C11.6234 16.8421 11.5486 16.875 11.4706 16.875H0.889412C0.850323 16.8755 0.811526 16.8678 0.775235 16.8524C0.738945 16.8369 0.705871 16.814 0.677904 16.785C0.649936 16.756 0.627623 16.7214 0.612237 16.6832C0.596852 16.6451 0.588696 16.604 0.588235 16.5625V0.9375Z" fill="#5A75FF"/>
<path d="M2.64763 7.5H9.70646C9.78446 7.5 9.85927 7.46708 9.91443 7.40847C9.96959 7.34987 10.0006 7.27038 10.0006 7.1875C10.0006 7.10462 9.96959 7.02513 9.91443 6.96653C9.85927 6.90792 9.78446 6.875 9.70646 6.875H2.64763C2.56963 6.875 2.49482 6.90792 2.43966 6.96653C2.3845 7.02513 2.35352 7.10462 2.35352 7.1875C2.35352 7.27038 2.3845 7.34987 2.43966 7.40847C2.49482 7.46708 2.56963 7.5 2.64763 7.5V7.5Z" fill="#5A75FF"/>
<path d="M2.64763 10H9.70646C9.78446 10 9.85927 9.96708 9.91443 9.90847C9.96959 9.84987 10.0006 9.77038 10.0006 9.6875C10.0006 9.60462 9.96959 9.52513 9.91443 9.46653C9.85927 9.40792 9.78446 9.375 9.70646 9.375H2.64763C2.56963 9.375 2.49482 9.40792 2.43966 9.46653C2.3845 9.52513 2.35352 9.60462 2.35352 9.6875C2.35352 9.77038 2.3845 9.84987 2.43966 9.90847C2.49482 9.96708 2.56963 10 2.64763 10V10Z" fill="#5A75FF"/>
<path d="M2.64763 5H5.58881C5.66681 5 5.74162 4.96708 5.79678 4.90847C5.85194 4.84987 5.88293 4.77038 5.88293 4.6875C5.88293 4.60462 5.85194 4.52513 5.79678 4.46653C5.74162 4.40792 5.66681 4.375 5.58881 4.375H2.64763C2.56963 4.375 2.49482 4.40792 2.43966 4.46653C2.3845 4.52513 2.35352 4.60462 2.35352 4.6875C2.35352 4.77038 2.3845 4.84987 2.43966 4.90847C2.49482 4.96708 2.56963 5 2.64763 5V5Z" fill="#5A75FF"/>
<path d="M2.64763 12.5H9.70646C9.78446 12.5 9.85927 12.4671 9.91443 12.4085C9.96959 12.3499 10.0006 12.2704 10.0006 12.1875C10.0006 12.1046 9.96959 12.0251 9.91443 11.9665C9.85927 11.9079 9.78446 11.875 9.70646 11.875H2.64763C2.56963 11.875 2.49482 11.9079 2.43966 11.9665C2.3845 12.0251 2.35352 12.1046 2.35352 12.1875C2.35352 12.2704 2.3845 12.3499 2.43966 12.4085C2.49482 12.4671 2.56963 12.5 2.64763 12.5V12.5Z" fill="#5A75FF"/>
<path d="M2.64763 15H9.70646C9.78446 15 9.85927 14.9671 9.91443 14.9085C9.96959 14.8499 10.0006 14.7704 10.0006 14.6875C10.0006 14.6046 9.96959 14.5251 9.91443 14.4665C9.85927 14.4079 9.78446 14.375 9.70646 14.375H2.64763C2.56963 14.375 2.49482 14.4079 2.43966 14.4665C2.3845 14.5251 2.35352 14.6046 2.35352 14.6875C2.35352 14.7704 2.3845 14.8499 2.43966 14.9085C2.49482 14.9671 2.56963 15 2.64763 15V15Z" fill="#5A75FF"/>
<path d="M12.6465 3.125H15.2935V6.5625C15.2935 7.07938 15.6894 7.5 16.1759 7.5H19.4112V19.0625C19.4112 19.1454 19.3802 19.2249 19.325 19.2835C19.2699 19.3421 19.1951 19.375 19.1171 19.375H8.5359C8.49681 19.3755 8.45801 19.3678 8.42172 19.3524C8.38543 19.3369 8.35236 19.314 8.32439 19.285C8.29642 19.256 8.27411 19.2214 8.25872 19.1832C8.24334 19.1451 8.23518 19.104 8.23472 19.0625V18.4375C8.23472 18.3546 8.20373 18.2751 8.14857 18.2165C8.09342 18.1579 8.01861 18.125 7.9406 18.125C7.8626 18.125 7.78779 18.1579 7.73263 18.2165C7.67747 18.2751 7.64648 18.3546 7.64648 18.4375V19.0625C7.64648 19.5794 8.04531 20 8.5359 20H19.1171C19.6035 20 19.9994 19.5794 19.9994 19.0625V7.1875C19.9994 7.17312 19.9935 7.16063 19.9918 7.14688C19.9901 7.13377 19.9876 7.12082 19.9841 7.10813C19.9726 7.05486 19.9478 7.00585 19.9124 6.96625L15.7953 2.59187C15.749 2.54466 15.6892 2.51519 15.6253 2.50813C15.613 2.50625 15.6012 2.5 15.5877 2.5H12.6465C12.5685 2.5 12.4937 2.53292 12.4385 2.59153C12.3834 2.65013 12.3524 2.72962 12.3524 2.8125C12.3524 2.89538 12.3834 2.97487 12.4385 3.03347C12.4937 3.09208 12.5685 3.125 12.6465 3.125ZM16.1759 6.875C16.0979 6.875 16.0231 6.84208 15.9679 6.78347C15.9128 6.72487 15.8818 6.64538 15.8818 6.5625V3.56687L18.9953 6.875H16.1759Z" fill="#5A75FF"/>
<path d="M13.8234 10H17.3528C17.4308 10 17.5056 9.96708 17.5608 9.90847C17.616 9.84987 17.6469 9.77038 17.6469 9.6875C17.6469 9.60462 17.616 9.52513 17.5608 9.46653C17.5056 9.40792 17.4308 9.375 17.3528 9.375H13.8234C13.7454 9.375 13.6706 9.40792 13.6154 9.46653C13.5603 9.52513 13.5293 9.60462 13.5293 9.6875C13.5293 9.77038 13.5603 9.84987 13.6154 9.90847C13.6706 9.96708 13.7454 10 13.8234 10Z" fill="#5A75FF"/>
<path d="M13.8234 12.5H17.3528C17.4308 12.5 17.5056 12.4671 17.5608 12.4085C17.616 12.3499 17.6469 12.2704 17.6469 12.1875C17.6469 12.1046 17.616 12.0251 17.5608 11.9665C17.5056 11.9079 17.4308 11.875 17.3528 11.875H13.8234C13.7454 11.875 13.6706 11.9079 13.6154 11.9665C13.5603 12.0251 13.5293 12.1046 13.5293 12.1875C13.5293 12.2704 13.5603 12.3499 13.6154 12.4085C13.6706 12.4671 13.7454 12.5 13.8234 12.5Z" fill="#5A75FF"/>
<path d="M13.8234 15H17.3528C17.4308 15 17.5056 14.9671 17.5608 14.9085C17.616 14.8499 17.6469 14.7704 17.6469 14.6875C17.6469 14.6046 17.616 14.5251 17.5608 14.4665C17.5056 14.4079 17.4308 14.375 17.3528 14.375H13.8234C13.7454 14.375 13.6706 14.4079 13.6154 14.4665C13.5603 14.5251 13.5293 14.6046 13.5293 14.6875C13.5293 14.7704 13.5603 14.8499 13.6154 14.9085C13.6706 14.9671 13.7454 15 13.8234 15Z" fill="#5A75FF"/>
<path d="M13.8234 17.5H17.3528C17.4308 17.5 17.5056 17.4671 17.5608 17.4085C17.616 17.3499 17.6469 17.2704 17.6469 17.1875C17.6469 17.1046 17.616 17.0251 17.5608 16.9665C17.5056 16.9079 17.4308 16.875 17.3528 16.875H13.8234C13.7454 16.875 13.6706 16.9079 13.6154 16.9665C13.5603 17.0251 13.5293 17.1046 13.5293 17.1875C13.5293 17.2704 13.5603 17.3499 13.6154 17.4085C13.6706 17.4671 13.7454 17.5 13.8234 17.5Z" fill="#5A75FF"/>
</svg>
