<svg width="20" height="20" viewBox="0 0 20 20" fill="none" xmlns="http://www.w3.org/2000/svg">
<g clip-path="url(#clip0)">
<path d="M14.5456 0.357143C14.5456 0.252976 14.5882 0.167411 14.6734 0.100446C14.7586 0.0334821 14.8675 0 15.0001 0H19.091C19.3372 0 19.5503 0.0706845 19.7302 0.212054C19.9101 0.353423 20.0001 0.520833 20.0001 0.714286V3.92857C20.0001 4.03274 19.9575 4.1183 19.8723 4.18527C19.787 4.25223 19.6781 4.28571 19.5456 4.28571H18.6365C18.5039 4.28571 18.395 4.25223 18.3098 4.18527C18.2245 4.1183 18.1819 4.03274 18.1819 3.92857V2.43304L14.574 5.27902C15.7672 6.45461 16.3637 7.79018 16.3637 9.28571C16.3637 10.9301 15.6654 12.3605 14.2686 13.577C12.8718 14.7935 11.1459 15.4911 9.09102 15.6696V17.1429H10.4547C10.5872 17.1429 10.6961 17.1763 10.7814 17.2433C10.8666 17.3103 10.9092 17.3958 10.9092 17.5V18.2143C10.9092 18.3185 10.8666 18.404 10.7814 18.471C10.6961 18.5379 10.5872 18.5714 10.4547 18.5714H9.09102V19.6429C9.09102 19.747 9.0484 19.8326 8.96318 19.8996C8.87795 19.9665 8.76905 20 8.63647 20H7.72738C7.5948 20 7.4859 19.9665 7.40068 19.8996C7.31545 19.8326 7.27283 19.747 7.27283 19.6429V18.5714H5.9092C5.77662 18.5714 5.66772 18.5379 5.58249 18.471C5.49727 18.404 5.45465 18.3185 5.45465 18.2143V17.5C5.45465 17.3958 5.49727 17.3103 5.58249 17.2433C5.66772 17.1763 5.77662 17.1429 5.9092 17.1429H7.27283V15.6696C5.86185 15.5506 4.58107 15.1674 3.43051 14.5201C2.27994 13.8728 1.39689 13.0413 0.781358 12.0257C0.165828 11.01 -0.0851189 9.9256 0.0285175 8.77232C0.180033 7.25446 0.937608 5.93936 2.30124 4.82701C3.66488 3.71466 5.30787 3.07292 7.23022 2.90179C8.34764 2.79762 9.42719 2.8683 10.4689 3.11384C11.5105 3.35938 12.448 3.74256 13.2814 4.26339L16.9035 1.42857H15.0001C14.8675 1.42857 14.7586 1.39509 14.6734 1.32812C14.5882 1.26116 14.5456 1.1756 14.5456 1.07143V0.357143ZM8.18193 14.2857C9.93382 14.2857 11.4324 13.7965 12.6777 12.8181C13.9229 11.8397 14.5456 10.6622 14.5456 9.28571C14.5456 7.90923 13.9229 6.73177 12.6777 5.75335C11.4324 4.77493 9.93382 4.28571 8.18193 4.28571C6.43003 4.28571 4.93145 4.77493 3.68619 5.75335C2.44092 6.73177 1.81829 7.90923 1.81829 9.28571C1.81829 10.6622 2.44092 11.8397 3.68619 12.8181C4.93145 13.7965 6.43003 14.2857 8.18193 14.2857Z" fill="#5A75FF"/>
</g>
<defs>
<clipPath id="clip0">
<rect width="20" height="20" fill="white"/>
</clipPath>
</defs>
</svg>
