<svg width="20" height="20" viewBox="0 0 20 20" fill="none" xmlns="http://www.w3.org/2000/svg">
<path d="M15.7689 10.2069C17.3273 10.2069 18.5911 8.94812 18.5911 7.39472C18.5911 5.84172 17.3273 4.58252 15.7689 4.58252C14.2093 4.58252 12.9453 5.84192 12.9453 7.39472C12.9451 8.94812 14.2093 10.2069 15.7689 10.2069Z" fill="#5A75FF"/>
<path d="M9.40974 10.7279C10.8129 10.7279 11.9503 9.59467 11.9503 8.19673C11.9503 6.79879 10.8129 5.66553 9.40974 5.66553C8.00661 5.66553 6.86914 6.79879 6.86914 8.19673C6.86914 9.59467 8.00661 10.7279 9.40974 10.7279Z" fill="#5A75FF"/>
<path d="M3.64207 11.1968C4.90467 11.1968 5.92867 10.1776 5.92867 8.9196C5.92867 7.6612 4.90467 6.6416 3.64207 6.6416C2.37907 6.6416 1.35547 7.6612 1.35547 8.9196C1.35547 10.1778 2.37887 11.1968 3.64207 11.1968Z" fill="#5A75FF"/>
<path d="M3.64191 11.7168C2.19191 11.7168 1.12891 12.9894 1.12891 14.304V15.189C1.12891 15.3142 1.23131 15.417 1.35731 15.417H5.92591C6.05231 15.417 6.15471 15.3142 6.15471 15.189V14.304C6.15471 12.9894 5.09171 11.7168 3.64191 11.7168Z" fill="#5A75FF"/>
<path d="M9.40959 11.3052C7.79859 11.3052 6.61719 12.7194 6.61719 14.1804V15.1638C6.61719 15.3028 6.73099 15.4172 6.87099 15.4172H11.9474C12.0147 15.4172 12.0792 15.3906 12.1269 15.3431C12.1746 15.2956 12.2014 15.2311 12.2016 15.1638V14.1804C12.2018 12.7196 11.0206 11.3052 9.40959 11.3052Z" fill="#5A75FF"/>
<path d="M15.7684 10.8486C13.9784 10.8486 12.666 12.4198 12.666 14.0434V15.1358C12.666 15.2904 12.7924 15.4172 12.948 15.4172H18.588C18.7444 15.4172 18.8708 15.2902 18.8708 15.1358V14.0434C18.8708 12.42 17.5584 10.8486 15.7684 10.8486Z" fill="#5A75FF"/>
</svg>
