<svg width="20" height="20" viewBox="0 0 20 20" fill="none" xmlns="http://www.w3.org/2000/svg">
<path d="M4.10721 15.8927C5.59258 17.3767 7.58548 18.2421 9.68388 18.3144C9.29805 16.0035 9.98805 13.5469 11.7672 11.7677C13.5472 9.98854 16.003 9.29854 18.3139 9.68437C18.2372 7.65687 17.4364 5.65187 15.8922 4.1077C14.348 2.56354 12.3422 1.7627 10.3155 1.68604C10.7014 3.99687 10.0114 6.45354 8.23221 8.2327C6.45221 10.0119 3.99638 10.7019 1.68555 10.316C1.75707 12.4146 2.6226 14.4078 4.10721 15.8927Z" fill="#5A75FF"/>
<path d="M12.9466 12.9457C12.2683 13.6245 11.7681 14.4602 11.4903 15.3786C11.2126 16.2971 11.1657 17.2699 11.3541 18.2107C13.0733 17.9346 14.6616 17.1232 15.8928 15.892C17.124 14.6607 17.9355 13.0724 18.2116 11.3532C17.2707 11.1651 16.2979 11.212 15.3795 11.4898C14.4611 11.7676 13.6255 12.2677 12.9466 12.9457ZM7.0549 7.05406C7.73311 6.37529 8.23331 5.53962 8.51111 4.62118C8.78891 3.70274 8.83572 2.72993 8.6474 1.78906C6.92804 2.065 5.33957 2.87636 4.10816 4.10761C2.87676 5.33886 2.06521 6.92724 1.78906 8.64656C2.73006 8.83473 3.70296 8.78785 4.6215 8.51006C5.54005 8.23227 6.37587 7.73216 7.0549 7.05406Z" fill="#5A75FF"/>
</svg>
